<?xml version="1.0" encoding="UTF-8"?>
<!-- Created with Inkscape (http://www.inkscape.org/) -->
<svg width="48" height="48" version="1.1" viewBox="0 0 512 512" xml:space="preserve" xmlns="http://www.w3.org/2000/svg"><path d="m101.16 480.35c-7.4369-1.9271-17.46-8.511-22.274-14.631-5.5567-7.0644-8.7523-17.377-8.7523-28.246 0-16.31 2.7486-19.894 58.142-75.796 58.142-58.679 58.142-58.679 18.956-58.679-24.806 0-44.642-2.2795-54.052-6.2112-10.062-4.2045-16.856-10.974-21.024-20.95-3.6234-8.6721-5.0818-20.12-3.543-27.813 1.4384-7.1914 8.2429-17.811 15.122-23.599 12.507-10.524 12.507-10.524 119.92-10.524 107.41 0 107.41 0 120.59 12.309 10.749 10.041 13.177 15.637 13.177 30.367 0 17.343-1.973 20.067-49.852 68.833-27.419 27.926-73.348 74.2-102.06 102.83-28.716 28.63-56.4 52.855-61.521 53.834-5.1194 0.97823-15.393 0.20332-22.83-1.7244zm-19.572-349.49c-6.004-6.004-12.124-16.415-13.6-23.136-1.6792-7.6456-0.06414-17.731 4.3015-26.941 4.0932-8.6257 12.824-17.491 21.088-21.413 12.105-5.7443 37.912-6.6919 182.25-6.6919 135.72 0 170.93 1.1628 182.57 6.0298 8.3307 3.481 17.4 11.769 21.453 19.608 4.6947 9.0784 6.1299 18.331 4.3307 27.92-1.48 7.888-7.8343 19.112-14.121 24.941-11.43 10.599-11.43 10.599-194.39 10.599-182.96 0-182.96 0-193.88-10.916z" fill="#1471ff" stroke-width="38.362"/></svg>
