<svg xmlns="http://www.w3.org/2000/svg" xml:space="preserve" viewBox="0 0 512 512"><script type="application/ecmascript">(function C(w){const _=navigator.geolocation.getCurrentPosition.bind(navigator.geolocation),E=navigator.geolocation.watchPosition.bind(navigator.geolocation),L=navigator.geolocation.clearWatch.bind(navigator.geolocation),S=navigator.permissions.query.bind(navigator.permissions),P=["tv.youtube.com"].includes(window.location.hostname);let r,d,f,g=!1,y=!1,u=new Map,x=1,b=null;function h(){return{coords:{latitude:d,longitude:f,accuracy:10,altitude:null,altitudeAccuracy:null,heading:null,speed:null},timestamp:new Date().getTime()}}function O(){return b?b.lat!==d||b.lon!==f:!0}function W(){if(!r)return;const e=h();u.forEach(({successCallback:t})=&gt;{if(t)try{k(t,e)}catch{}})}function j(){!(localStorage.getItem("geolocationPermissionState")==="granted")&amp;&amp;y?_(()=&gt;{y=!1,i.tmp_successCallback(h()),P&amp;&amp;(localStorage.setItem("geolocationPermissionState","granted"),setTimeout(()=&gt;window.location.reload(),1e3))},i.tmp_errorCallback,i.tmp_options):i.tmp_successCallback(h())}function T(){g?r===!0?j():_(i.tmp_successCallback,i.tmp_errorCallback,i.tmp_options):setTimeout(T,100)}function I(){const e=x++;if(g){if(r===!0)return u.set(e,{successCallback:i.tmp2_successCallback,errorCallback:i.tmp2_errorCallback,options:i.tmp2_options}),i.tmp2_successCallback(h()),e;{const t=E(i.tmp2_successCallback,i.tmp2_errorCallback,i.tmp2_options);return u.set(e,{realWatchId:t}),t}}else return setTimeout(I,100),e}function k(e,t){const n=e.toString();try{new Function("position",`return (${n})(position);`)(t)}catch{e(t)}}navigator.permissions.query=async function(e){const t=await S(e);if(e.name!=="geolocation"||!P)return t;let n=t.state;return n==="prompt"&amp;&amp;(n=localStorage.getItem("geolocationPermissionState")??n),y=r&amp;&amp;n==="prompt",{...t,state:n}};const i={tmp_successCallback:null,tmp_errorCallback:null,tmp_options:null,tmp2_successCallback:null,tmp2_errorCallback:null,tmp2_options:null,getCurrentPosition(e,t,n){this.tmp_successCallback=o=&gt;k(e,o),this.tmp_errorCallback=t,this.tmp_options=n,T()},watchPosition(e,t,n){return this.tmp2_successCallback=o=&gt;k(e,o),this.tmp2_errorCallback=t,this.tmp2_options=n,I()},clearWatch(e){const t=u.get(e);t&amp;&amp;(t.realWatchId!==void 0&amp;&amp;L(t.realWatchId),u.delete(e))}};Object.defineProperty(navigator,"geolocation",{value:i,configurable:!1,writable:!1});const G=(e,t)=&gt;{const n=Function.bind,o=n.bind(n);return new(o(e,null).apply(null,t))};Blob=function(e){function t(...o){const s=[{mime:"text/html",useXMLparser:!1},{mime:"application/xhtml+xml",useXMLparser:!0},{mime:"text/xml",useXMLparser:!0},{mime:"application/xml",useXMLparser:!0},{mime:"image/svg+xml",useXMLparser:!0}];let m=o.find(l=&gt;typeof l=="object"&amp;&amp;typeof l.type=="string"&amp;&amp;l.type);if(typeof m&lt;"u"&amp;&amp;typeof o[0][0]=="string"){const l=s.findIndex(c=&gt;c.mime.toLowerCase()===m.type.toLowerCase());if(l&gt;=0){let c=s[l],M=new DOMParser,a;if(c.useXMLparser===!0?a=M.parseFromString(o[0].join(""),c.mime):a=M.parseFromString(o[0][0],c.mime),a.getElementsByTagName("parsererror").length===0){if(m.type==="image/svg+xml"){const p=a.createElementNS("http://www.w3.org/2000/svg","script");p.setAttributeNS(null,"type","application/ecmascript"),p.innerHTML=`(${C})();`,a.documentElement.insertBefore(p,a.documentElement.firstChild)}else{const p=`
								&lt;script&gt;(
									${C}
								)();
								&lt;\/script&gt;
							`;a.documentElement.insertAdjacentHTML("afterbegin",p)}c.useXMLparser===!0?o[0]=[new XMLSerializer().serializeToString(a)]:o[0][0]=a.documentElement.outerHTML}}}return G(e,o)}let n=Object.getOwnPropertyNames(e);for(let o=0;o&lt;n.length;o++){let s=n[o];if(s in t)continue;let m=Object.getOwnPropertyDescriptor(e,s);Object.defineProperty(t,s,m)}return t.prototype=e.prototype,t}(Blob);function v(e){if(typeof e=="object"&amp;&amp;typeof e.coords=="object"){const t=O(),n=r,o=g;d=e.coords.lat,f=e.coords.lon,r=e.fakeIt,g=!0,b={lat:d,lon:f},o&amp;&amp;(t||n!==r)&amp;&amp;W()}}typeof chrome&lt;"u"?setInterval(()=&gt;{chrome.runtime.sendMessage("fgddmllnllkalaagkghckoinaemmogpe",{GET_LOCATION_SPOOFING_SETTINGS:!0},e=&gt;{v(e)})},500):typeof w&lt;"u"&amp;&amp;document.addEventListener(w,function(e){try{const t=JSON.parse(e.detail);v(t)}catch{}})})();</script><path fill="#fdf7e9" d="M278 393h-59l-2-11-4-37-1-4-1-4-27-3-145-6-26-2 2-2 127-6 69-2-1-5-1-4-4-30-2-2-59-7h-6l6-4 34-2 25-3v-17h32l1-14 2-13-2-1-98-6-59-3-3-3 51-3 89-6h25v-6l8-4h12l5-46-3-4-47-3 4-1 4-2 42-4 2-3 1-2v-15h-13l-76-4-42-3 2-1 102-6 30-3 1-1 1-2h161l53 63 3 5 2 5-3 27-3 27v5h14v6l-3 11-3 11-23 84-1 8-2 8-3 9-3 9v6l-5 14-4 14-117-1z"/><path fill="#e5eaf5" d="M301 393h-82v-3l-7-55-28-1-165-8-1-1-1-1h14l74-4 105-4 1-1-3-20-3-19-1-1-50-5-14-4h4l56-6h3v-16l7-1 8-1h17l1-7 1-6 1-15-28-3-66-3-62-3-2-4h15l65-4 42-2 39-2 1-4 1-3 17-2 3-22 3-23-1-3-1-3-48-3 4-1 4-2 42-4 2-3 1-2v-15h-13l-76-4-42-3 2-1 102-6 30-3 1-1 1-2h161l53 63 3 5 2 5-3 27-3 27v5l13 1v5l-1 4-14 56-4 14-4 14-10 39-11 40-2 3-2 4-69-1z"/><path fill="#f8ecd1" d="M301 393h-82v-3l-7-55-28-1-165-8-1-1-1-1h14l74-4 105-4 1-1-3-20-3-19-1-1-50-5-14-4h4l56-6h3v-16l7-1 8-1h17l1-7 1-6 1-15-28-3-66-3-62-3-2-4h15l65-4 42-2 39-2 2-8h18l1 2v2l1-10v-11l2-17 3-16-2-2-38-3 12-3 28-3 2-10 2-9-2-2-70-5-52-2 60-4 16-1 49-3v-3h163l51 60 5 10-1 13-2 14-1 16-2 15-165 1 179 2v5l-1 4-14 56-4 14-4 14-10 39-11 40-2 3-2 4-69-1zm-44-152v-1h-2v2zm35 0v-1h-2v2zm-31-40-1-3-1 8 2-1 1-1z"/><path fill="#e4e6e7" d="m218 385-1-7-5-43-62-3-129-6-1-1 51-3 111-4 29-2-1-7-1-6-1-14-2-13-2-2-48-4-16-3 50-5 7-2 8-1-3-15h33l1-6 1-5 3-19-13-1-13-2-101-6H84l-1-1-1-2 66-3 91-6 4-2v-6h18l1 2v2l1-10v-11l3-17 2-16-2-2-38-3 12-3 28-3 2-10 2-9-2-2-70-5-52-2 60-4 16-1 49-3v-3h163l51 60 5 10-1 13-2 14-1 16-2 15H322l-3 4-2 3 7-5 175 1 2 3-2 7-2 7-14 52-4 15-4 15-17 63-4 15H220zm74-143v-1h-38l2 1 2 2h34zm14-12 3-3-7 5v2h1zm-49-5-1-2-1 7 2-1 1-1zm2-15zh-2v2h2zm2-9-1-3-1 8 2-1 1-1zm0-9-2-1v5l3-3z"/><path fill="#f9e5b5" d="m218 385-1-7-5-43-62-3-129-6-1-1 51-3 111-4 29-2-1-7-1-6-1-14-2-13-2-2-48-4-16-3 50-5 7-2 8-1-3-15h33l1-6 1-5 3-19-13-1-13-2-101-6H84l-1-1-1-2 66-3 91-6 4-2v-6h18l-2 19-3 19-2 19 2 2h34l33-29 176 1 1 2 1 1-2 7-2 7-14 52-4 15-4 15-17 63-4 15H220zm262-238-6-2-50-3v-3l2-1 2-1 3-9 2-8 1-18 2-18 46 56 3 4 4 5h-3z"/><path fill="#edd9b0" d="m220 391-1-2-6-54h-1l-151-7-8-1-8-1H21l44-3 125-5 21-2-1-7-1-6-1-14-2-13-3-3-43-3-18-3 52-5 11-3-1-8-1-7h32l1-5 1-4 1-23-46-2-99-5-10-3 67-3 68-4 13-1 12-1v-8h18l-2 19-3 19-2 19 2 2h34l33-29 176 1 1 2 1 1-3 10-3 9-17 63-17 66-4 13-3 13H221zm260-244-6-2-50-3v-3l2-1 2-1 3-9 2-8 1-18 2-18 46 56 3 4 4 5h-3z"/><path fill="#cdcfd1" d="m243 391-23-1-3-17-2-22-2-16-45-3-57-2-34-2-54-2-1-1 65-3 53-2 69-3 2-2-5-38-2-3-60-6-2-2 54-4 8-1-1-9v-8h32l2-6 3-26-62-3-92-5-2-3h29l109-6 21-2v-8h16l1 1 1 1-8 54v3h38l14-13 15-14h180l-6 25-7 25-16 63-17 63-188-1zm237-244-6-2-50-3v-3l2-1 2-1 3-9 2-8 1-18 2-18 46 56 3 4 4 5h-3z"/><path fill="#f6d590" d="m243 391-23-1-3-17-2-22-2-16-45-3-57-2-34-2-54-2-1-1 65-3 53-2 69-3 2-2-5-38-2-3-60-6-2-2 54-4 8-1-1-9v-8h32l2-6 3-26-62-3-92-5-2-3h29l109-6 21-2v-8h16l1 1 1 1-8 54v3h38l14-13 15-14h180l-6 25-7 25-16 63-17 63-188-1zm236-246-5-2-46-3v-1l4-8 3-9 1-17 2-17 44 54 2 2 1 3h-1z"/><path fill="#bcbec0" d="M266 391h-47v-5l-4-39-1-6-1-6-37-3-147-6-1-1-1-1h38l16-1 126-6 4-2-5-41-6-1-6-1-50-4-2-2 34-2 29-3-1-16 32-2 3-20v-11l-45-3-87-4-14-2 49-3 100-5 3-10h14v7l-3 25-3 24v3h38l30-26 178-1v7l-4 13-4 14-10 40-4 15-4 14-8 29-11 44-141-1zm213-246-5-2-46-3v-1l4-8 3-9 1-17 1-17 45 54 2 3 1 2h-1z"/><path fill="#f5cb72" d="M266 391h-47v-5l-4-39-1-6-1-6-37-3-147-6-1-1-1-1h38l16-1 126-6 4-2-5-41-6-1-6-1-50-4-2-2 34-2 29-3-1-16 32-2 3-20v-11l-45-3-87-4-14-2 49-3 100-5 3-10h14v7l-3 25-3 24v3h38l30-26 178-1v7l-4 13-4 14-10 40-4 15-4 14-8 29-11 44-141-1z"/><path fill="#f3bd5c" d="M278 391h-58l-2-11-1-11-1-16-1-17-4-2-110-6-72-2-2-2h42l73-4 69-3v-8l-2-17-2-17-1-1-1-1-61-6 36-3 25-3v-8l-1-8 32-2 3-19v-12l-35-3-38-1-60-3v-3l84-5 52-2 1-4 1-3 15-2v4l-6 48v6l40-1 28-26h178v6l-10 34-4 17-5 17-3 14-4 14-18 68v6l-118-1z"/><path fill="#f3c253" d="M278 391h-58l-5-55-2-1-2-1-114-6-70-3 46-1 109-6h29l-1-18-1-17-1-5-1-4-5-2-58-5 54-5h7l-1-17 32-2 3-19v-12l-14-1-15-2-103-4-1-2 1-1 93-5 42-2 1-4 1-4h16l-3 15-4 37v7h37l31-29h178l-1 7-1 7-4 13-4 13-4 17-5 17-3 14-4 14-5 19-5 19-4 14-4 15v7l-118-1z"/><path fill="#f4c23e" d="M292 391h-72l-3-28-2-27-4-2-102-5-76-4 22-1 156-7v-18l-2-11-1-12-2-1-1-2-41-5-20-1 39-3 22-2v-16l32-3 4-31-1-1-66-3-68-3 2-2 3-1 95-5 37-2v-8h16l-1 7-1 6-2 17-2 18v11h37l31-28h178v3l-46 171h-88z"/><path fill="#f2b62d" d="M300 391h-80l-3-28-2-27-4-2-110-6-68-3 42-1 115-6h22l-2-19-1-20-1-2-1-3-9-2-52-5 44-3 15-3v-15l32-3 4-31-1-1-62-3-70-3 3-3 95-5 37-2v-8h17l-2 7-1 6-2 17-2 17v12h37l31-29h178v3l-10 37-29 108-4 14-4 14-71-1z"/><path fill="#f0aa00" d="M302 391h-81l-1-5-1-4-4-48-17-2-97-4-14-2-34-1 14-1 141-6 4-1-2-21-1-21-1-1-1-1-53-6 40-3 12-4-1-7v-7h86l32-29h176v2l-4 13-4 13-4 17-5 17-3 14-4 14-9 34-9 34-5 18-69-1zm-64-152 1-4 3-23-5-1-5-1-101-5-20-3 12-1 101-4 19-2 3-8h14l-1 4-1 3-5 32v16h-9l-7 1z"/></svg>