<svg data-v-423bf9ae="" xmlns="http://www.w3.org/2000/svg" viewBox="0 0 151.20000000000002 163" class="iconAbove"><!----><!----><defs data-v-423bf9ae=""><linearGradient data-v-423bf9ae="" gradientTransform="rotate(25)" id="3c471472-ac25-4d65-8a9a-667de26b0c66" x1="0%" y1="0%" x2="100%" y2="0%"><stop data-v-423bf9ae="" offset="0%" style="stop-color: rgb(3, 200, 232); stop-opacity: 1;"></stop><stop data-v-423bf9ae="" offset="100%" style="stop-color: rgb(218, 78, 204); stop-opacity: 1;"></stop></linearGradient></defs><g data-v-423bf9ae="" id="7c50b274-4613-4643-b691-2c3be58645e1" fill="url(#3c471472-ac25-4d65-8a9a-667de26b0c66)" transform="matrix(7.653061541007602,0,0,7.653061541007602,32.74285600484282,77.2857133925134)"><path d="M5.04 6.72Q5.10 6.94 5.10 7.28L5.10 7.28Q5.10 7.60 5.04 7.84L5.04 7.84Q5.10 8.06 5.10 8.40L5.10 8.40Q5.10 8.72 5.04 8.96L5.04 8.96Q5.10 9.18 5.10 9.52L5.10 9.52Q5.10 9.84 5.04 10.08L5.04 10.08L4.48 10.08Q4.54 10.30 4.54 10.64L4.54 10.64Q4.54 10.96 4.48 11.20L4.48 11.20L1.68 11.20Q1.62 10.96 1.62 10.64L1.62 10.64Q1.62 10.30 1.68 10.08L1.68 10.08L1.12 10.08Q1.06 9.84 1.06 9.52L1.06 9.52Q1.06 9.18 1.12 8.96L1.12 8.96L0.56 8.96Q0.50 8.72 0.50 8.40L0.50 8.40Q0.50 8.06 0.56 7.84L0.56 7.84Q0.50 7.60 0.50 7.28L0.50 7.28Q0.50 6.94 0.56 6.72L0.56 6.72Q0.50 6.48 0.50 6.16L0.50 6.16Q0.50 5.82 0.56 5.60L0.56 5.60L1.12 5.60Q1.06 5.36 1.06 5.04L1.06 5.04Q1.06 4.70 1.12 4.48L1.12 4.48L1.68 4.48Q1.62 4.24 1.62 3.92L1.62 3.92Q1.62 3.58 1.68 3.36L1.68 3.36L4.48 3.36Q4.54 3.58 4.54 3.92L4.54 3.92Q4.54 4.24 4.48 4.48L4.48 4.48L5.04 4.48Q5.10 4.70 5.10 5.04L5.10 5.04Q5.10 5.36 5.04 5.60L5.04 5.60L3.92 5.60Q3.86 5.36 3.86 5.04L3.86 5.04Q3.86 4.70 3.92 4.48L3.92 4.48L2.24 4.48Q2.30 4.70 2.30 5.04L2.30 5.04Q2.30 5.36 2.24 5.60L2.24 5.60L1.68 5.60Q1.74 5.82 1.74 6.16L1.74 6.16Q1.74 6.48 1.68 6.72L1.68 6.72Q1.74 6.94 1.74 7.28L1.74 7.28Q1.74 7.60 1.68 7.84L1.68 7.84Q1.74 8.06 1.74 8.40L1.74 8.40Q1.74 8.72 1.68 8.96L1.68 8.96L2.24 8.96Q2.30 9.18 2.30 9.52L2.30 9.52Q2.30 9.84 2.24 10.08L2.24 10.08L3.92 10.08Q3.86 9.84 3.86 9.52L3.86 9.52Q3.86 9.18 3.92 8.96L3.92 8.96Q3.86 8.72 3.86 8.40L3.86 8.40Q3.86 8.06 3.92 7.84L3.92 7.84L3.08 7.84Q3.02 7.60 3.02 7.28L3.02 7.28Q3.02 6.94 3.08 6.72L3.08 6.72L5.04 6.72ZM10.64 4.48Q10.70 4.70 10.70 5.04L10.70 5.04Q10.70 5.36 10.64 5.60L10.64 5.60Q10.70 5.82 10.70 6.16L10.70 6.16Q10.70 6.48 10.64 6.72L10.64 6.72Q10.70 6.94 10.70 7.28L10.70 7.28Q10.70 7.60 10.64 7.84L10.64 7.84Q10.70 8.06 10.70 8.40L10.70 8.40Q10.70 8.72 10.64 8.96L10.64 8.96Q10.70 9.18 10.70 9.52L10.70 9.52Q10.70 9.84 10.64 10.08L10.64 10.08Q10.70 10.30 10.70 10.64L10.70 10.64Q10.70 10.96 10.64 11.20L10.64 11.20L9.52 11.20Q9.46 10.96 9.46 10.64L9.46 10.64Q9.46 10.30 9.52 10.08L9.52 10.08Q9.46 9.84 9.46 9.52L9.46 9.52Q9.46 9.18 9.52 8.96L9.52 8.96Q9.46 8.72 9.46 8.40L9.46 8.40Q9.46 8.06 9.52 7.84L9.52 7.84L7.28 7.84Q7.34 8.06 7.34 8.40L7.34 8.40Q7.34 8.72 7.28 8.96L7.28 8.96Q7.34 9.18 7.34 9.52L7.34 9.52Q7.34 9.84 7.28 10.08L7.28 10.08Q7.34 10.30 7.34 10.64L7.34 10.64Q7.34 10.96 7.28 11.20L7.28 11.20L6.16 11.20Q6.10 10.96 6.10 10.64L6.10 10.64Q6.10 10.30 6.16 10.08L6.16 10.08Q6.10 9.84 6.10 9.52L6.10 9.52Q6.10 9.18 6.16 8.96L6.16 8.96Q6.10 8.72 6.10 8.40L6.10 8.40Q6.10 8.06 6.16 7.84L6.16 7.84Q6.10 7.60 6.10 7.28L6.10 7.28Q6.10 6.94 6.16 6.72L6.16 6.72Q6.10 6.48 6.10 6.16L6.10 6.16Q6.10 5.82 6.16 5.60L6.16 5.60Q6.10 5.36 6.10 5.04L6.10 5.04Q6.10 4.70 6.16 4.48L6.16 4.48Q6.10 4.24 6.10 3.92L6.10 3.92Q6.10 3.58 6.16 3.36L6.16 3.36L7.28 3.36Q7.34 3.58 7.34 3.92L7.34 3.92Q7.34 4.24 7.28 4.48L7.28 4.48Q7.34 4.70 7.34 5.04L7.34 5.04Q7.34 5.36 7.28 5.60L7.28 5.60Q7.34 5.82 7.34 6.16L7.34 6.16Q7.34 6.48 7.28 6.72L7.28 6.72L9.52 6.72Q9.46 6.48 9.46 6.16L9.46 6.16Q9.46 5.82 9.52 5.60L9.52 5.60Q9.46 5.36 9.46 5.04L9.46 5.04Q9.46 4.70 9.52 4.48L9.52 4.48Q9.46 4.24 9.46 3.92L9.46 3.92Q9.46 3.58 9.52 3.36L9.52 3.36L10.64 3.36Q10.70 3.58 10.70 3.92L10.70 3.92Q10.70 4.24 10.64 4.48L10.64 4.48Z"></path></g><defs data-v-423bf9ae=""><linearGradient data-v-423bf9ae="" gradientTransform="rotate(25)" id="37b4be61-08cb-41c0-9c39-d90469aa705a" x1="0%" y1="0%" x2="100%" y2="0%"><stop data-v-423bf9ae="" offset="0%" style="stop-color: rgb(3, 200, 232); stop-opacity: 1;"></stop><stop data-v-423bf9ae="" offset="100%" style="stop-color: rgb(218, 78, 204); stop-opacity: 1;"></stop></linearGradient></defs><g data-v-423bf9ae="" id="b3c34875-1a97-4f12-aec9-f1d9f9575d42" transform="matrix(1.8,0,0,1.8,-14,-45)" stroke="none" fill="url(#37b4be61-08cb-41c0-9c39-d90469aa705a)"><path d="M26 25C16.059 25 8 35.059 8 45s2.059 30 12 30c5.323 0 16.11-12.325 19.406-16h21.188C63.89 62.675 74.677 75 80 75c9.941 0 12-20.059 12-30 0-9.941-8.059-20-18-20-5.323 0-10.11.325-13.406 4H39.406C36.11 25.325 31.323 25 26 25zm48 9a3 3 0 110 6 3 3 0 010-6zm-48.219 1.031A2 1.991 0 0128 37.062v3.97h3.969A1.991 2 0 0134 42.811a1.991 2 0 01-2.031 2.22H28V49a2 1.992 0 01-4 0V45.03h-3.969a1.992 2 0 110-4H24v-3.969a2 1.991 0 011.781-2.03zM68 40a3 3 0 110 6 3 3 0 010-6zm12 0a3 3 0 110 6 3 3 0 010-6zm-6 6a3 3 0 110 6 3 3 0 010-6z" overflow="visible" color="#000"></path></g><!----></svg>