<svg data-v-423bf9ae="" xmlns="http://www.w3.org/2000/svg" viewBox="0 0 340.5504791217252 180" class="iconAboveSlogan"><!----><!----><defs data-v-423bf9ae=""><linearGradient data-v-423bf9ae="" gradientTransform="rotate(25)" id="6ba3716d-8d90-4cba-8526-d87d4903d1e8" x1="0%" y1="0%" x2="100%" y2="0%"><stop data-v-423bf9ae="" offset="0%" style="stop-color: rgb(9, 235, 241); stop-opacity: 1;"></stop><stop data-v-423bf9ae="" offset="100%" style="stop-color: rgb(227, 8, 213); stop-opacity: 1;"></stop></linearGradient></defs><g data-v-423bf9ae="" id="3ee3d2f4-a22a-405a-9788-eba1ddff9cbe" fill="url(#6ba3716d-8d90-4cba-8526-d87d4903d1e8)" transform="matrix(6.116208284037474,0,0,6.116208284037474,0.0000022909440531293512,91.25688248904135)"><path d="M3.64 1.93L3.64 1.93L3.66 1.93Q5.85 1.93 6.34 3.36L6.34 3.36Q6.57 3.89 6.57 4.85L6.57 4.85L4.98 5.07L4.96 5.03L4.96 5.00Q4.96 3.84 4.18 3.62L4.18 3.62Q3.94 3.55 3.60 3.53L3.60 3.53Q2.75 3.53 2.50 4.44L2.50 4.44Q2.36 5.05 2.36 5.88L2.36 5.88L2.36 6.64Q2.36 7.98 2.39 8.65L2.39 8.65L2.80 8.65L2.80 10.02L4.74 10.02L4.74 7.68L3.51 7.68L3.51 6.43L7.22 6.43L7.22 6.71L6.73 6.71L6.73 8.16L5.74 8.16L5.74 8.61L6.23 8.61L6.23 11.39L0.93 11.39L0.93 9.91L0.33 9.91L0.33 9.78L0.59 9.78L0.59 9.63L0.93 9.63L0.93 9.08L0 9.08L0 7.90L0.44 7.90Q0.42 7.38 0.42 7.29L0.42 7.29Q0.42 4.18 0.77 3.53L0.77 3.53Q0.86 3.13 1.33 2.64L1.33 2.64Q2.02 1.93 3.64 1.93ZM2.54 8.52L2.54 8.09L2.63 8.09L2.63 8.52L2.54 8.52ZM6.52 8.67L6.52 8.67Q6.62 8.71 6.63 8.76L6.63 8.76L6.63 8.82Q6.63 8.85 6.57 8.89L6.57 8.89Q6.58 8.91 6.58 8.93L6.58 8.93L6.62 8.93L6.62 8.90L6.70 8.90L6.70 8.92Q6.70 9.00 6.67 9.00L6.67 9.00Q6.67 9.02 6.75 9.11L6.75 9.11L6.65 9.11L6.60 9.08Q6.54 9.13 6.47 9.13L6.47 9.13Q6.36 9.13 6.34 8.98L6.34 8.98Q6.36 8.91 6.42 8.89L6.42 8.89Q6.41 8.80 6.41 8.76L6.41 8.76Q6.41 8.71 6.52 8.67ZM6.49 8.79L6.49 8.79Q6.50 8.82 6.50 8.84L6.50 8.84Q6.53 8.84 6.55 8.79L6.55 8.79Q6.55 8.76 6.52 8.76L6.52 8.76Q6.49 8.76 6.49 8.79ZM6.55 9.00L6.47 8.93L6.44 8.98L6.44 9.00Q6.44 9.02 6.49 9.05L6.49 9.05Q6.55 9.02 6.55 9.00L6.55 9.00ZM6.52 9.37L6.52 9.37Q6.62 9.41 6.63 9.45L6.63 9.45L6.63 9.52Q6.63 9.54 6.57 9.58L6.57 9.58Q6.58 9.62 6.58 9.63L6.58 9.63L6.62 9.63L6.62 9.60L6.70 9.60L6.70 9.62Q6.70 9.70 6.67 9.70L6.67 9.70Q6.67 9.71 6.75 9.81L6.75 9.81L6.65 9.81L6.60 9.78Q6.54 9.83 6.47 9.83L6.47 9.83Q6.36 9.83 6.34 9.68L6.34 9.68Q6.36 9.62 6.42 9.58L6.42 9.58Q6.41 9.50 6.41 9.45L6.41 9.45Q6.41 9.41 6.52 9.37ZM6.49 9.49L6.49 9.49Q6.50 9.52 6.50 9.54L6.50 9.54Q6.53 9.54 6.55 9.49L6.55 9.49Q6.55 9.45 6.52 9.45L6.52 9.45Q6.49 9.46 6.49 9.49ZM3.10 9.49L3.10 9.49Q3.32 9.52 3.32 9.68L3.32 9.68L3.32 9.73Q3.30 9.94 3.10 9.94L3.10 9.94L3.09 9.94Q2.89 9.94 2.89 9.70L2.89 9.70Q2.95 9.49 3.10 9.49ZM3.48 9.57L3.48 9.50L3.83 9.50L3.83 9.60L3.73 9.60L3.73 9.91Q3.73 9.94 3.69 9.94L3.69 9.94L3.64 9.94Q3.61 9.94 3.61 9.91L3.61 9.91L3.61 9.60L3.51 9.60Q3.48 9.60 3.48 9.57L3.48 9.57ZM3.01 9.70L3.01 9.70L3.01 9.78Q3.01 9.80 3.08 9.84L3.08 9.84L3.15 9.84Q3.21 9.84 3.22 9.71L3.22 9.71Q3.22 9.63 3.14 9.58L3.14 9.58L3.12 9.58Q3.01 9.58 3.01 9.70ZM6.47 9.63L6.47 9.63L6.44 9.68L6.44 9.70Q6.44 9.72 6.49 9.75L6.49 9.75Q6.55 9.72 6.55 9.70L6.55 9.70Q6.48 9.63 6.47 9.63ZM6.50 10.07L6.50 10.07Q6.58 10.07 6.63 10.15L6.63 10.15L6.63 10.22Q6.63 10.25 6.57 10.28L6.57 10.28Q6.58 10.32 6.58 10.33L6.58 10.33L6.62 10.33L6.62 10.30L6.70 10.30L6.70 10.32Q6.70 10.40 6.67 10.40L6.67 10.40Q6.67 10.41 6.75 10.51L6.75 10.51L6.65 10.51L6.60 10.48Q6.54 10.53 6.47 10.53L6.47 10.53Q6.36 10.53 6.34 10.38L6.34 10.38Q6.36 10.32 6.42 10.28L6.42 10.28L6.41 10.17L6.41 10.15Q6.41 10.12 6.50 10.07ZM6.49 10.19L6.49 10.19Q6.50 10.22 6.50 10.23L6.50 10.23Q6.53 10.23 6.55 10.19L6.55 10.19Q6.55 10.15 6.52 10.15L6.52 10.15Q6.49 10.16 6.49 10.19ZM6.55 10.40L6.47 10.33L6.44 10.38L6.44 10.40Q6.44 10.42 6.49 10.45L6.49 10.45Q6.55 10.42 6.55 10.40L6.55 10.40ZM6.50 10.77L6.50 10.77Q6.58 10.77 6.63 10.86L6.63 10.86L6.63 10.92Q6.63 10.94 6.57 10.99L6.57 10.99Q6.58 11.01 6.58 11.03L6.58 11.03L6.62 11.03L6.62 11.00L6.70 11.00L6.70 11.01L6.67 11.13Q6.69 11.13 6.75 11.21L6.75 11.21L6.65 11.21L6.60 11.18Q6.54 11.22 6.47 11.22L6.47 11.22Q6.36 11.22 6.34 11.08L6.34 11.08Q6.36 11.01 6.42 10.99L6.42 10.99L6.41 10.87L6.41 10.86Q6.41 10.82 6.50 10.77ZM6.49 10.88L6.49 10.88Q6.50 10.92 6.50 10.93L6.50 10.93Q6.53 10.93 6.55 10.88L6.55 10.88Q6.55 10.86 6.52 10.86L6.52 10.86Q6.49 10.86 6.49 10.88ZM6.55 11.09L6.47 11.03L6.44 11.08L6.44 11.09Q6.44 11.12 6.49 11.14L6.49 11.14Q6.55 11.12 6.55 11.09L6.55 11.09ZM2.29 11.73L2.29 11.53L4.31 11.53L4.31 11.73L2.29 11.73ZM8.64 7.57L10.32 1.96L11.97 1.96Q12.00 2.10 13.57 7.29L13.57 7.29L13.87 7.29L13.87 10.51L13.19 10.51L13.19 10.76L13.87 10.76L13.87 11.45L12.05 11.45L12.05 9.47L9.83 9.47L9.83 10.32L8.92 10.32L8.92 11.73L7.27 11.73L7.27 11.63L7.40 11.63L7.40 10.32L8.08 10.32L8.08 7.57L8.64 7.57ZM11.13 4.71L11.09 4.71L11.09 4.72Q10.88 5.89 10.27 8.40L10.27 8.40L11.81 8.40L11.81 7.29L11.68 7.29Q11.13 4.92 11.13 4.71L11.13 4.71ZM6.79 7.57L6.79 7.28L8.08 7.28L8.08 7.57L6.79 7.57ZM12.05 11.73L12.05 11.57L14.25 11.57L14.25 11.73L12.05 11.73ZM14.12 9.38L14.12 1.98L16.29 1.98Q16.65 3.29 17.77 7.23L17.77 7.23L18.63 7.23Q18.66 7.23 18.91 6.30L18.91 6.30Q19.45 4.44 20.13 1.98L20.13 1.98L22.13 1.98L22.13 8.31L22.24 8.31L22.24 9.46L21.64 9.46L21.64 9.67L22.24 9.67L22.24 11.73L20.54 11.73L20.54 10.97L20.75 10.97L20.75 8.63L20.38 8.63L20.38 7.46L20.17 7.46L20.16 7.53L19.97 7.53L19.97 9.19L19.38 9.19L19.38 9.97L18.87 9.97L18.87 11.29L17.67 11.29L17.67 10.45L16.93 10.45L16.93 9.30L16.49 9.30L16.49 8.09L16.24 8.09Q16.22 8.00 16.07 7.46L16.07 7.46L17.80 7.46L17.75 7.23L16.02 7.23L16.07 7.46L15.85 7.46L15.85 8.98L15.96 8.98L15.96 10.64L15.53 10.64L15.53 10.94L15.96 10.94L15.96 11.38L14.41 11.38L14.41 9.38L14.12 9.38ZM15.85 6.54L15.83 6.54L15.83 6.66Q15.83 6.81 15.85 7.23L15.85 7.23L16.01 7.23Q15.85 6.58 15.85 6.54L15.85 6.54ZM20.41 6.56L20.38 6.56L20.24 7.23L20.38 7.23Q20.41 6.82 20.41 6.62L20.41 6.62L20.41 6.56ZM15.83 7.23L15.29 7.23L15.29 7.46L15.83 7.46L15.83 7.23ZM20.22 7.23L18.66 7.23L18.61 7.46L20.16 7.46Q20.22 7.29 20.22 7.23L20.22 7.23ZM21.59 7.23L20.41 7.23L20.41 7.46L21.59 7.46L21.59 7.23ZM18.57 7.46L17.83 7.46Q17.94 7.99 17.99 7.99L17.99 7.99L18.18 7.99L18.18 8.87L18.49 8.87L18.49 7.51L18.57 7.51L18.57 7.46ZM22.24 9.67L22.24 9.46L23.24 9.46L23.24 9.67L22.24 9.67ZM13.97 11.61L13.97 11.46L15.71 11.46L15.71 11.61L13.97 11.61ZM23.68 6.80L23.68 2.00L28.47 2.00L28.47 3.60Q28.47 3.63 28.44 3.63L28.44 3.63L25.59 3.63L25.59 5.74L28.14 5.74L28.14 5.76Q28.14 5.84 28.12 6.79L28.12 6.79Q28.10 6.79 28.10 6.80L28.10 6.80L28.21 6.80L28.21 7.29L26.00 7.29L26.00 9.29L25.41 9.29L25.41 9.49L26.00 9.49L26.00 10.10L28.51 10.10L28.51 10.32L28.31 10.32L28.31 11.52L25.31 11.52L25.31 11.73L23.89 11.73L23.89 8.24L23.68 8.24L23.68 7.01L22.12 7.01L22.12 6.80L23.68 6.80ZM24.49 6.80L23.69 6.80L23.69 7.01L24.49 7.01L24.49 6.80ZM29.33 3.56L29.33 1.92L34.49 1.92L34.49 3.17Q34.49 3.21 33.70 4.88L33.70 4.88L35.45 4.88L35.45 5.31L33.52 5.31Q33.50 5.31 32.99 6.36L32.99 6.36Q32.98 6.44 32.48 7.47L32.48 7.47L32.76 7.47Q32.23 8.63 32.16 8.71L32.16 8.71L31.32 8.71L31.32 9.09L32.00 9.09L31.54 10.08L33.34 10.08L33.34 10.59L34.96 10.59L34.96 11.70Q34.96 11.73 34.92 11.73L34.92 11.73L32.20 11.73L32.20 11.57L29.33 11.57L29.33 10.62L29.74 10.62L29.74 9.57Q29.85 9.27 30.73 7.47L30.73 7.47L30.45 7.47L30.45 7.45L32.31 3.56L29.33 3.56ZM33.69 4.88L32.78 4.88L32.78 5.31L33.47 5.31Q33.50 5.31 33.69 4.88L33.69 4.88ZM39.01 1.95L39.01 1.95Q41.11 1.95 41.77 3.42L41.77 3.42Q42.15 4.14 42.15 6.19L42.15 6.19L42.15 6.23L41.43 6.23L41.43 6.56L42.15 6.56L42.15 10.10L41.67 10.10L41.67 11.37L40.72 11.37L40.72 11.73L37.40 11.73L37.40 11.37L37.00 11.37L37.00 10.10L36.14 10.10L36.14 9.10L36.65 9.10L36.65 8.57L36.14 8.57L36.14 9.10L34.93 9.10L34.93 8.57L35.85 8.57Q35.83 7.38 35.83 6.74L35.83 6.74L35.83 5.91Q35.83 3.58 36.62 2.80L36.62 2.80Q37.34 1.95 39.01 1.95ZM37.81 5.32L37.81 5.32L37.83 5.32L37.81 5.35L37.81 6.23L37.08 6.23L37.08 6.56L37.81 6.56Q37.80 8.67 37.80 9.75L37.80 9.75L37.80 10.10L39.43 10.10L39.43 9.56L40.18 9.56L40.18 9.54Q40.18 8.54 40.17 6.75L40.17 6.75Q40.17 6.68 40.18 6.38L40.18 6.38Q40.18 4.45 39.96 4.01L39.96 4.01Q39.72 3.58 39.10 3.58L39.10 3.58L38.86 3.58Q38.12 3.58 37.94 4.24L37.94 4.24Q37.86 4.56 37.81 5.32ZM42.15 6.56L42.15 6.23L43.33 6.23L43.33 6.56L42.15 6.56ZM43.16 1.96L43.16 1.96L45.16 1.96Q45.20 1.96 45.80 3.53L45.80 3.53Q45.85 3.59 47.06 6.62L47.06 6.62L47.57 6.62L47.57 1.96L49.31 1.96L49.31 7.51L49.51 7.51L49.51 9.67L48.81 9.67L48.81 10.08L49.51 10.08L49.51 11.37L46.89 11.37L46.89 9.73L46.43 9.73Q45.49 7.44 45.16 6.56L45.16 6.56L45.16 4.92L44.91 4.92L44.91 9.93L44.52 9.93L44.52 11.66L42.88 11.66L42.88 7.94L43.18 7.94L43.18 7.92Q43.16 3.09 43.16 1.96ZM47.02 6.62L46.10 6.62L46.10 6.98L47.19 6.98Q47.06 6.62 47.02 6.62L47.02 6.62ZM48.38 6.62L47.58 6.62L47.58 6.98L47.20 6.98Q47.55 7.85 47.62 8.11L47.62 8.11L47.63 8.11L47.63 8.07Q47.58 7.18 47.58 6.98L47.58 6.98L48.38 6.98L48.38 6.62ZM46.89 11.73L46.89 11.55L50.06 11.55L50.06 11.73L46.89 11.73ZM50.85 6.80L50.85 2.00L55.64 2.00L55.64 3.60Q55.64 3.63 55.61 3.63L55.61 3.63L52.77 3.63L52.77 5.74L55.32 5.74L55.32 5.76Q55.32 5.84 55.29 6.79L55.29 6.79Q55.27 6.79 55.27 6.80L55.27 6.80L55.38 6.80L55.38 7.29L53.18 7.29L53.18 9.29L52.58 9.29L52.58 9.49L53.18 9.49L53.18 10.10L55.68 10.10L55.68 10.32L55.48 10.32L55.48 11.52L52.49 11.52L52.49 11.73L51.06 11.73L51.06 8.24L50.85 8.24L50.85 7.01L49.29 7.01L49.29 6.80L50.85 6.80ZM51.67 6.80L50.87 6.80L50.87 7.01L51.67 7.01L51.67 6.80Z"></path></g><defs data-v-423bf9ae=""><linearGradient data-v-423bf9ae="" gradientTransform="rotate(25)" id="bde0d3e4-4f65-4cec-81c5-6f07d29034cf" x1="0%" y1="0%" x2="100%" y2="0%"><stop data-v-423bf9ae="" offset="0%" style="stop-color: rgb(3, 200, 232); stop-opacity: 1;"></stop><stop data-v-423bf9ae="" offset="100%" style="stop-color: rgb(218, 78, 204); stop-opacity: 1;"></stop></linearGradient></defs><g data-v-423bf9ae="" id="305aa618-21ad-429d-b538-c4e6c679bdd7" transform="matrix(1.8,0,0,1.8,81,-45)" stroke="none" fill="url(#bde0d3e4-4f65-4cec-81c5-6f07d29034cf)"><path d="M26 25C16.059 25 8 35.059 8 45s2.059 30 12 30c5.323 0 16.11-12.325 19.406-16h21.188C63.89 62.675 74.677 75 80 75c9.941 0 12-20.059 12-30 0-9.941-8.059-20-18-20-5.323 0-10.11.325-13.406 4H39.406C36.11 25.325 31.323 25 26 25zm48 9a3 3 0 110 6 3 3 0 010-6zm-48.219 1.031A2 1.991 0 0128 37.062v3.97h3.969A1.991 2 0 0134 42.811a1.991 2 0 01-2.031 2.22H28V49a2 1.992 0 01-4 0V45.03h-3.969a1.992 2 0 110-4H24v-3.969a2 1.991 0 011.781-2.03zM68 40a3 3 0 110 6 3 3 0 010-6zm12 0a3 3 0 110 6 3 3 0 010-6zm-6 6a3 3 0 110 6 3 3 0 010-6z" overflow="visible" color="#000"></path></g><!----><g data-v-423bf9ae="" id="950b3bdf-fd74-4d3c-b6f3-4bce7980515b" fill="#08ADDD" transform="matrix(0.47644545642224734,0,0,0.47644545642224734,43.82759595381637,205.78214770938175)"><path d="M1.02 6.97L1.02 5.88L4.24 5.88Q6.06 5.88 6.90 6.75Q7.74 7.62 7.74 9.52L7.74 9.52L7.74 12.04Q7.74 13.94 6.90 14.81Q6.06 15.68 4.24 15.68L4.24 15.68L1.02 15.68L1.02 14.57L1.86 14.57L1.86 6.97L1.02 6.97ZM3.04 14.59L4.07 14.59Q4.72 14.59 5.19 14.46Q5.66 14.34 5.96 14.04Q6.27 13.73 6.42 13.23Q6.57 12.73 6.57 11.96L6.57 11.96L6.57 9.60Q6.57 8.83 6.42 8.33Q6.27 7.83 5.96 7.53Q5.66 7.22 5.19 7.10Q4.72 6.97 4.07 6.97L4.07 6.97L3.04 6.97L3.04 14.59ZM16.88 15.68L16.88 5.88L22.82 5.88L22.82 6.97L18.06 6.97L18.06 10.22L22.74 10.22L22.74 11.31L18.06 11.31L18.06 14.59L22.90 14.59L22.90 15.68L16.88 15.68ZM37.73 9.21L37.73 8.71Q37.73 8.23 37.54 7.87Q37.35 7.50 37.03 7.27Q36.71 7.03 36.29 6.90Q35.87 6.78 35.41 6.78L35.41 6.78Q35 6.78 34.64 6.88Q34.27 6.99 33.98 7.18Q33.70 7.38 33.53 7.66Q33.36 7.95 33.36 8.33L33.36 8.33L33.36 8.41Q33.36 8.82 33.53 9.11Q33.70 9.39 34.03 9.60Q34.36 9.80 34.85 9.93Q35.34 10.07 35.99 10.16L35.99 10.16Q37.53 10.40 38.26 11.07Q38.99 11.73 38.99 12.85L38.99 12.85L38.99 13.02Q38.99 13.65 38.77 14.17Q38.56 14.70 38.13 15.08Q37.70 15.46 37.07 15.67Q36.44 15.88 35.62 15.88L35.62 15.88Q34.68 15.88 33.96 15.60Q33.24 15.33 32.75 14.85Q32.27 14.36 32.02 13.71Q31.77 13.06 31.77 12.29L31.77 12.29L31.77 11.87L32.94 11.87L32.94 12.21Q32.94 13.50 33.65 14.14Q34.36 14.78 35.62 14.78L35.62 14.78Q36.71 14.78 37.26 14.30Q37.81 13.82 37.81 13.02L37.81 13.02L37.81 12.94Q37.81 12.17 37.25 11.76Q36.68 11.35 35.41 11.17L35.41 11.17Q34.66 11.07 34.07 10.87Q33.47 10.67 33.05 10.34Q32.63 10.01 32.41 9.55Q32.19 9.09 32.19 8.46L32.19 8.46L32.19 8.29Q32.19 7.71 32.42 7.24Q32.66 6.76 33.09 6.41Q33.52 6.06 34.11 5.87Q34.71 5.68 35.42 5.68L35.42 5.68Q36.25 5.68 36.90 5.92Q37.55 6.16 38.00 6.56Q38.44 6.96 38.67 7.50Q38.91 8.04 38.91 8.62L38.91 8.62L38.91 9.21L37.73 9.21ZM51.04 14.78L51.04 14.78Q51.65 14.78 52.07 14.58Q52.50 14.38 52.77 14.04Q53.05 13.69 53.18 13.25Q53.31 12.81 53.31 12.32L53.31 12.32L53.31 12.15L54.49 12.15L54.49 12.32Q54.49 13.06 54.26 13.71Q54.04 14.36 53.61 14.85Q53.17 15.33 52.53 15.60Q51.88 15.88 51.04 15.88L51.04 15.88Q49.42 15.88 48.51 14.85Q47.60 13.83 47.60 11.87L47.60 11.87L47.60 9.69Q47.60 7.78 48.51 6.73Q49.42 5.68 51.04 5.68L51.04 5.68Q51.88 5.68 52.53 5.96Q53.17 6.23 53.61 6.71Q54.04 7.20 54.26 7.85Q54.49 8.50 54.49 9.24L54.49 9.24L54.49 9.41L53.31 9.41L53.31 9.24Q53.30 8.76 53.16 8.32Q53.03 7.87 52.76 7.53Q52.49 7.18 52.07 6.98Q51.65 6.78 51.04 6.78L51.04 6.78Q49.91 6.78 49.34 7.60Q48.78 8.43 48.78 9.77L48.78 9.77L48.78 11.79Q48.78 13.23 49.34 14.01Q49.91 14.78 51.04 14.78ZM69.37 15.68L68.66 13.24L64.46 13.24L63.74 15.68L62.48 15.68L65.45 5.88L67.66 5.88L70.63 15.68L69.37 15.68ZM66.64 6.38L66.47 6.38L64.78 12.15L68.33 12.15L66.64 6.38ZM85.19 12.15L85.19 15.68L84.01 15.68L84.01 12.40Q84.01 12.04 83.85 11.84Q83.68 11.65 83.26 11.65L83.26 11.65L80.21 11.65L80.21 15.68L79.03 15.68L79.03 5.88L82.53 5.88Q83.29 5.88 83.85 6.10Q84.41 6.31 84.78 6.68Q85.15 7.04 85.34 7.53Q85.53 8.01 85.53 8.54L85.53 8.54L85.53 8.96Q85.53 9.51 85.23 10.05Q84.92 10.60 84.29 10.89L84.29 10.89L84.29 11.06Q84.71 11.13 84.95 11.40Q85.19 11.66 85.19 12.15L85.19 12.15ZM80.21 6.97L80.21 10.56L82.39 10.56Q83.38 10.56 83.87 10.13Q84.35 9.70 84.35 8.88L84.35 8.88L84.35 8.62Q84.35 7.88 83.87 7.43Q83.38 6.97 82.39 6.97L82.39 6.97L80.21 6.97ZM96.75 12.07L96.75 10.98L101.12 10.98L101.12 15.68L100.03 15.68L100.03 14.50L99.86 14.50Q99.62 15.12 99.02 15.50Q98.42 15.88 97.62 15.88L97.62 15.88Q96.04 15.88 95.14 14.85Q94.23 13.83 94.23 11.87L94.23 11.87L94.23 9.69Q94.23 7.78 95.14 6.73Q96.05 5.68 97.68 5.68L97.68 5.68Q98.52 5.68 99.16 5.96Q99.81 6.23 100.24 6.71Q100.67 7.20 100.90 7.85Q101.12 8.50 101.12 9.24L101.12 9.24L101.12 9.41L99.95 9.41L99.95 9.24Q99.95 8.76 99.81 8.32Q99.68 7.87 99.41 7.53Q99.13 7.18 98.71 6.98Q98.28 6.78 97.68 6.78L97.68 6.78Q96.54 6.78 95.98 7.60Q95.41 8.43 95.41 9.77L95.41 9.77L95.41 11.79Q95.41 13.23 95.98 14.01Q96.54 14.78 97.71 14.78L97.71 14.78Q98.76 14.78 99.35 14.11Q99.95 13.44 99.95 12.24L99.95 12.24L99.95 12.07L96.75 12.07ZM116.07 15.68L115.36 13.24L111.16 13.24L110.45 15.68L109.19 15.68L112.15 5.88L114.37 5.88L117.33 15.68L116.07 15.68ZM113.34 6.38L113.18 6.38L111.48 12.15L115.04 12.15L113.34 6.38ZM141.33 15.68L141.33 5.88L142.51 5.88L142.51 14.59L147.63 14.59L147.63 15.68L141.33 15.68ZM156.52 11.87L156.52 9.69Q156.52 7.78 157.43 6.73Q158.34 5.68 159.96 5.68L159.96 5.68Q161.59 5.68 162.50 6.73Q163.41 7.78 163.41 9.69L163.41 9.69L163.41 11.87Q163.41 13.83 162.50 14.85Q161.59 15.88 159.96 15.88L159.96 15.88Q158.34 15.88 157.43 14.85Q156.52 13.83 156.52 11.87L156.52 11.87ZM159.96 14.78L159.96 14.78Q161.10 14.78 161.67 14.01Q162.23 13.23 162.23 11.79L162.23 11.79L162.23 9.77Q162.23 8.43 161.67 7.60Q161.10 6.78 159.96 6.78L159.96 6.78Q158.83 6.78 158.26 7.60Q157.70 8.43 157.70 9.77L157.70 9.77L157.70 11.79Q157.70 13.23 158.26 14.01Q158.83 14.78 159.96 14.78ZM177.84 9.21L177.84 8.71Q177.84 8.23 177.65 7.87Q177.46 7.50 177.14 7.27Q176.82 7.03 176.40 6.90Q175.98 6.78 175.52 6.78L175.52 6.78Q175.11 6.78 174.75 6.88Q174.38 6.99 174.10 7.18Q173.81 7.38 173.64 7.66Q173.47 7.95 173.47 8.33L173.47 8.33L173.47 8.41Q173.47 8.82 173.64 9.11Q173.81 9.39 174.14 9.60Q174.47 9.80 174.96 9.93Q175.45 10.07 176.11 10.16L176.11 10.16Q177.65 10.40 178.37 11.07Q179.10 11.73 179.10 12.85L179.10 12.85L179.10 13.02Q179.10 13.65 178.89 14.17Q178.67 14.70 178.24 15.08Q177.81 15.46 177.18 15.67Q176.55 15.88 175.73 15.88L175.73 15.88Q174.79 15.88 174.07 15.60Q173.35 15.33 172.87 14.85Q172.38 14.36 172.13 13.71Q171.88 13.06 171.88 12.29L171.88 12.29L171.88 11.87L173.05 11.87L173.05 12.21Q173.05 13.50 173.76 14.14Q174.47 14.78 175.73 14.78L175.73 14.78Q176.82 14.78 177.37 14.30Q177.93 13.82 177.93 13.02L177.93 13.02L177.93 12.94Q177.93 12.17 177.36 11.76Q176.79 11.35 175.52 11.17L175.52 11.17Q174.78 11.07 174.18 10.87Q173.59 10.67 173.17 10.34Q172.75 10.01 172.52 9.55Q172.30 9.09 172.30 8.46L172.30 8.46L172.30 8.29Q172.30 7.71 172.54 7.24Q172.77 6.76 173.20 6.41Q173.63 6.06 174.22 5.87Q174.82 5.68 175.53 5.68L175.53 5.68Q176.36 5.68 177.01 5.92Q177.66 6.16 178.11 6.56Q178.56 6.96 178.79 7.50Q179.02 8.04 179.02 8.62L179.02 8.62L179.02 9.21L177.84 9.21ZM203.03 15.68L203.03 5.88L205.27 5.88L206.58 15.18L206.75 15.18L208.07 5.88L210.31 5.88L210.31 15.68L209.22 15.68L209.22 6.38L209.05 6.38L207.73 15.68L205.60 15.68L204.29 6.38L204.12 6.38L204.12 15.68L203.03 15.68ZM219.27 15.68L219.27 5.88L225.20 5.88L225.20 6.97L220.44 6.97L220.44 10.22L225.12 10.22L225.12 11.31L220.44 11.31L220.44 14.59L225.29 14.59L225.29 15.68L219.27 15.68ZM240.59 6.97L240.59 12.74Q240.59 14.27 239.84 15.07Q239.09 15.88 237.65 15.88L237.65 15.88Q236.21 15.88 235.38 15.07Q234.54 14.27 234.54 12.74L234.54 12.74L234.54 11.98L235.72 11.98L235.72 12.74Q235.72 13.66 236.19 14.22Q236.67 14.78 237.65 14.78L237.65 14.78Q238.63 14.78 239.02 14.22Q239.41 13.66 239.41 12.74L239.41 12.74L239.41 6.97L238.41 6.97L238.41 5.88L241.43 5.88L241.43 6.97L240.59 6.97ZM249.93 11.87L249.93 9.69Q249.93 7.78 250.84 6.73Q251.75 5.68 253.37 5.68L253.37 5.68Q255.00 5.68 255.91 6.73Q256.82 7.78 256.82 9.69L256.82 9.69L256.82 11.87Q256.82 13.83 255.91 14.85Q255.00 15.88 253.37 15.88L253.37 15.88Q251.75 15.88 250.84 14.85Q249.93 13.83 249.93 11.87L249.93 11.87ZM253.37 14.78L253.37 14.78Q254.51 14.78 255.07 14.01Q255.64 13.23 255.64 11.79L255.64 11.79L255.64 9.77Q255.64 8.43 255.07 7.60Q254.51 6.78 253.37 6.78L253.37 6.78Q252.24 6.78 251.67 7.60Q251.10 8.43 251.10 9.77L251.10 9.77L251.10 11.79Q251.10 13.23 251.67 14.01Q252.24 14.78 253.37 14.78ZM272.01 12.15L272.01 15.68L270.83 15.68L270.83 12.40Q270.83 12.04 270.66 11.84Q270.49 11.65 270.07 11.65L270.07 11.65L267.02 11.65L267.02 15.68L265.85 15.68L265.85 5.88L269.35 5.88Q270.10 5.88 270.66 6.10Q271.22 6.31 271.59 6.68Q271.96 7.04 272.15 7.53Q272.34 8.01 272.34 8.54L272.34 8.54L272.34 8.96Q272.34 9.51 272.04 10.05Q271.74 10.60 271.11 10.89L271.11 10.89L271.11 11.06Q271.53 11.13 271.77 11.40Q272.01 11.66 272.01 12.15L272.01 12.15ZM267.02 6.97L267.02 10.56L269.21 10.56Q270.20 10.56 270.68 10.13Q271.17 9.70 271.17 8.88L271.17 8.88L271.17 8.62Q271.17 7.88 270.68 7.43Q270.20 6.97 269.21 6.97L269.21 6.97L267.02 6.97ZM281.54 15.68L281.54 5.88L287.48 5.88L287.48 6.97L282.72 6.97L282.72 10.22L287.39 10.22L287.39 11.31L282.72 11.31L282.72 14.59L287.56 14.59L287.56 15.68L281.54 15.68ZM302.39 9.21L302.39 8.71Q302.39 8.23 302.20 7.87Q302.01 7.50 301.69 7.27Q301.36 7.03 300.94 6.90Q300.52 6.78 300.06 6.78L300.06 6.78Q299.66 6.78 299.29 6.88Q298.93 6.99 298.64 7.18Q298.35 7.38 298.19 7.66Q298.02 7.95 298.02 8.33L298.02 8.33L298.02 8.41Q298.02 8.82 298.19 9.11Q298.35 9.39 298.68 9.60Q299.01 9.80 299.50 9.93Q299.99 10.07 300.65 10.16L300.65 10.16Q302.19 10.40 302.92 11.07Q303.65 11.73 303.65 12.85L303.65 12.85L303.65 13.02Q303.65 13.65 303.43 14.17Q303.21 14.70 302.79 15.08Q302.36 15.46 301.73 15.67Q301.10 15.88 300.27 15.88L300.27 15.88Q299.33 15.88 298.61 15.60Q297.89 15.33 297.41 14.85Q296.93 14.36 296.67 13.71Q296.42 13.06 296.42 12.29L296.42 12.29L296.42 11.87L297.60 11.87L297.60 12.21Q297.60 13.50 298.31 14.14Q299.01 14.78 300.27 14.78L300.27 14.78Q301.36 14.78 301.92 14.30Q302.47 13.82 302.47 13.02L302.47 13.02L302.47 12.94Q302.47 12.17 301.90 11.76Q301.34 11.35 300.06 11.17L300.06 11.17Q299.32 11.07 298.73 10.87Q298.13 10.67 297.71 10.34Q297.29 10.01 297.07 9.55Q296.84 9.09 296.84 8.46L296.84 8.46L296.84 8.29Q296.84 7.71 297.08 7.24Q297.32 6.76 297.75 6.41Q298.17 6.06 298.77 5.87Q299.36 5.68 300.08 5.68L300.08 5.68Q300.90 5.68 301.55 5.92Q302.20 6.16 302.65 6.56Q303.10 6.96 303.33 7.50Q303.56 8.04 303.56 8.62L303.56 8.62L303.56 9.21L302.39 9.21ZM334.00 6.97L334.00 12.74Q334.00 14.27 333.25 15.07Q332.50 15.88 331.06 15.88L331.06 15.88Q329.62 15.88 328.78 15.07Q327.95 14.27 327.95 12.74L327.95 12.74L327.95 11.98L329.13 11.98L329.13 12.74Q329.13 13.66 329.60 14.22Q330.08 14.78 331.06 14.78L331.06 14.78Q332.04 14.78 332.43 14.22Q332.82 13.66 332.82 12.74L332.82 12.74L332.82 6.97L331.81 6.97L331.81 5.88L334.84 5.88L334.84 6.97L334.00 6.97ZM343.42 5.88L344.60 5.88L344.60 12.38Q344.60 13.57 345.15 14.17Q345.70 14.78 346.78 14.78L346.78 14.78Q347.86 14.78 348.41 14.17Q348.96 13.57 348.96 12.38L348.96 12.38L348.96 5.88L350.14 5.88L350.14 12.38Q350.14 14.08 349.24 14.98Q348.35 15.88 346.78 15.88L346.78 15.88Q345.21 15.88 344.32 14.98Q343.42 14.08 343.42 12.38L343.42 12.38L343.42 5.88ZM359.38 15.68L359.38 5.88L365.32 5.88L365.32 6.97L360.56 6.97L360.56 10.22L365.23 10.22L365.23 11.31L360.56 11.31L360.56 14.59L365.40 14.59L365.40 15.68L359.38 15.68ZM376.98 12.07L376.98 10.98L381.35 10.98L381.35 15.68L380.25 15.68L380.25 14.50L380.09 14.50Q379.85 15.12 379.25 15.50Q378.64 15.88 377.85 15.88L377.85 15.88Q376.26 15.88 375.36 14.85Q374.46 13.83 374.46 11.87L374.46 11.87L374.46 9.69Q374.46 7.78 375.37 6.73Q376.28 5.68 377.90 5.68L377.90 5.68Q378.74 5.68 379.39 5.96Q380.03 6.23 380.46 6.71Q380.90 7.20 381.12 7.85Q381.35 8.50 381.35 9.24L381.35 9.24L381.35 9.41L380.17 9.41L380.17 9.24Q380.17 8.76 380.04 8.32Q379.90 7.87 379.63 7.53Q379.36 7.18 378.93 6.98Q378.50 6.78 377.90 6.78L377.90 6.78Q376.77 6.78 376.20 7.60Q375.63 8.43 375.63 9.77L375.63 9.77L375.63 11.79Q375.63 13.23 376.20 14.01Q376.77 14.78 377.93 14.78L377.93 14.78Q378.98 14.78 379.57 14.11Q380.17 13.44 380.17 12.24L380.17 12.24L380.17 12.07L376.98 12.07ZM390.04 11.87L390.04 9.69Q390.04 7.78 390.95 6.73Q391.86 5.68 393.48 5.68L393.48 5.68Q395.11 5.68 396.02 6.73Q396.93 7.78 396.93 9.69L396.93 9.69L396.93 11.87Q396.93 13.83 396.02 14.85Q395.11 15.88 393.48 15.88L393.48 15.88Q391.86 15.88 390.95 14.85Q390.04 13.83 390.04 11.87L390.04 11.87ZM393.48 14.78L393.48 14.78Q394.62 14.78 395.18 14.01Q395.75 13.23 395.75 11.79L395.75 11.79L395.75 9.77Q395.75 8.43 395.18 7.60Q394.62 6.78 393.48 6.78L393.48 6.78Q392.35 6.78 391.78 7.60Q391.22 8.43 391.22 9.77L391.22 9.77L391.22 11.79Q391.22 13.23 391.78 14.01Q392.35 14.78 393.48 14.78ZM411.36 9.21L411.36 8.71Q411.36 8.23 411.17 7.87Q410.98 7.50 410.66 7.27Q410.34 7.03 409.92 6.90Q409.50 6.78 409.04 6.78L409.04 6.78Q408.63 6.78 408.27 6.88Q407.90 6.99 407.62 7.18Q407.33 7.38 407.16 7.66Q406.99 7.95 406.99 8.33L406.99 8.33L406.99 8.41Q406.99 8.82 407.16 9.11Q407.33 9.39 407.66 9.60Q407.99 9.80 408.48 9.93Q408.97 10.07 409.63 10.16L409.63 10.16Q411.17 10.40 411.89 11.07Q412.62 11.73 412.62 12.85L412.62 12.85L412.62 13.02Q412.62 13.65 412.40 14.17Q412.19 14.70 411.76 15.08Q411.33 15.46 410.70 15.67Q410.07 15.88 409.25 15.88L409.25 15.88Q408.31 15.88 407.59 15.60Q406.87 15.33 406.38 14.85Q405.90 14.36 405.65 13.71Q405.40 13.06 405.40 12.29L405.40 12.29L405.40 11.87L406.57 11.87L406.57 12.21Q406.57 13.50 407.28 14.14Q407.99 14.78 409.25 14.78L409.25 14.78Q410.34 14.78 410.89 14.30Q411.45 13.82 411.45 13.02L411.45 13.02L411.45 12.94Q411.45 12.17 410.88 11.76Q410.31 11.35 409.04 11.17L409.04 11.17Q408.30 11.07 407.70 10.87Q407.11 10.67 406.69 10.34Q406.27 10.01 406.04 9.55Q405.82 9.09 405.82 8.46L405.82 8.46L405.82 8.29Q405.82 7.71 406.06 7.24Q406.29 6.76 406.72 6.41Q407.15 6.06 407.74 5.87Q408.34 5.68 409.05 5.68L409.05 5.68Q409.88 5.68 410.53 5.92Q411.18 6.16 411.63 6.56Q412.08 6.96 412.31 7.50Q412.54 8.04 412.54 8.62L412.54 8.62L412.54 9.21L411.36 9.21ZM440.59 11.65L438.27 11.65L438.27 15.68L437.09 15.68L437.09 5.88L440.59 5.88Q441.35 5.88 441.91 6.10Q442.47 6.31 442.84 6.68Q443.21 7.04 443.40 7.53Q443.59 8.01 443.59 8.54L443.59 8.54L443.59 8.96Q443.59 9.49 443.40 9.98Q443.21 10.47 442.83 10.84Q442.46 11.21 441.90 11.43Q441.34 11.65 440.59 11.65L440.59 11.65ZM438.27 6.97L438.27 10.56L440.45 10.56Q442.41 10.56 442.41 8.88L442.41 8.88L442.41 8.62Q442.41 7.88 441.93 7.43Q441.45 6.97 440.45 6.97L440.45 6.97L438.27 6.97ZM458.57 15.68L457.86 13.24L453.66 13.24L452.94 15.68L451.68 15.68L454.65 5.88L456.86 5.88L459.83 15.68L458.57 15.68ZM455.84 6.38L455.67 6.38L453.98 12.15L457.53 12.15L455.84 6.38ZM474.39 12.15L474.39 15.68L473.21 15.68L473.21 12.40Q473.21 12.04 473.05 11.84Q472.88 11.65 472.46 11.65L472.46 11.65L469.41 11.65L469.41 15.68L468.23 15.68L468.23 5.88L471.73 5.88Q472.49 5.88 473.05 6.10Q473.61 6.31 473.98 6.68Q474.35 7.04 474.54 7.53Q474.73 8.01 474.73 8.54L474.73 8.54L474.73 8.96Q474.73 9.51 474.42 10.05Q474.12 10.60 473.49 10.89L473.49 10.89L473.49 11.06Q473.91 11.13 474.15 11.40Q474.39 11.66 474.39 12.15L474.39 12.15ZM469.41 6.97L469.41 10.56L471.59 10.56Q472.58 10.56 473.07 10.13Q473.55 9.70 473.55 8.88L473.55 8.88L473.55 8.62Q473.55 7.88 473.07 7.43Q472.58 6.97 471.59 6.97L471.59 6.97L469.41 6.97ZM489.71 15.68L488.99 13.24L484.79 13.24L484.08 15.68L482.82 15.68L485.79 5.88L488.00 5.88L490.97 15.68L489.71 15.68ZM486.98 6.38L486.81 6.38L485.11 12.15L488.67 12.15L486.98 6.38ZM518.43 11.65L516.11 11.65L516.11 15.68L514.93 15.68L514.93 5.88L518.43 5.88Q519.19 5.88 519.75 6.10Q520.31 6.31 520.68 6.68Q521.05 7.04 521.24 7.53Q521.43 8.01 521.43 8.54L521.43 8.54L521.43 8.96Q521.43 9.49 521.24 9.98Q521.05 10.47 520.67 10.84Q520.30 11.21 519.74 11.43Q519.18 11.65 518.43 11.65L518.43 11.65ZM516.11 6.97L516.11 10.56L518.29 10.56Q520.25 10.56 520.25 8.88L520.25 8.88L520.25 8.62Q520.25 7.88 519.77 7.43Q519.29 6.97 518.29 6.97L518.29 6.97L516.11 6.97ZM533.65 14.78L533.65 14.78Q534.25 14.78 534.68 14.58Q535.11 14.38 535.38 14.04Q535.65 13.69 535.79 13.25Q535.92 12.81 535.92 12.32L535.92 12.32L535.92 12.15L537.10 12.15L537.10 12.32Q537.10 13.06 536.87 13.71Q536.65 14.36 536.21 14.85Q535.78 15.33 535.14 15.60Q534.49 15.88 533.65 15.88L533.65 15.88Q532.03 15.88 531.12 14.85Q530.21 13.83 530.21 11.87L530.21 11.87L530.21 9.69Q530.21 7.78 531.12 6.73Q532.03 5.68 533.65 5.68L533.65 5.68Q534.49 5.68 535.14 5.96Q535.78 6.23 536.21 6.71Q536.65 7.20 536.87 7.85Q537.10 8.50 537.10 9.24L537.10 9.24L537.10 9.41L535.92 9.41L535.92 9.24Q535.91 8.76 535.77 8.32Q535.64 7.87 535.37 7.53Q535.09 7.18 534.67 6.98Q534.25 6.78 533.65 6.78L533.65 6.78Q532.52 6.78 531.95 7.60Q531.38 8.43 531.38 9.77L531.38 9.77L531.38 11.79Q531.38 13.23 531.95 14.01Q532.52 14.78 533.65 14.78Z"></path></g></svg>