<svg data-v-423bf9ae="" xmlns="http://www.w3.org/2000/svg" viewBox="0 0 292.346956705313 180" class="iconAboveSlogan"><!----><!----><defs data-v-423bf9ae=""><linearGradient data-v-423bf9ae="" gradientTransform="rotate(25)" id="c4d2b17b-5cbf-4043-ab46-c1391b19b339" x1="0%" y1="0%" x2="100%" y2="0%"><stop data-v-423bf9ae="" offset="0%" style="stop-color: rgb(9, 235, 241); stop-opacity: 1;"></stop><stop data-v-423bf9ae="" offset="100%" style="stop-color: rgb(227, 8, 213); stop-opacity: 1;"></stop></linearGradient></defs><g data-v-423bf9ae="" id="3f8da226-f6a4-4258-b258-e19f0889c658" fill="url(#c4d2b17b-5cbf-4043-ab46-c1391b19b339)" transform="matrix(7.653061541007602,0,0,7.653061541007602,-3.8265300429601155,77.2857133925134)"><path d="M5.04 6.72Q5.10 6.94 5.10 7.28L5.10 7.28Q5.10 7.60 5.04 7.84L5.04 7.84Q5.10 8.06 5.10 8.40L5.10 8.40Q5.10 8.72 5.04 8.96L5.04 8.96Q5.10 9.18 5.10 9.52L5.10 9.52Q5.10 9.84 5.04 10.08L5.04 10.08L4.48 10.08Q4.54 10.30 4.54 10.64L4.54 10.64Q4.54 10.96 4.48 11.20L4.48 11.20L1.68 11.20Q1.62 10.96 1.62 10.64L1.62 10.64Q1.62 10.30 1.68 10.08L1.68 10.08L1.12 10.08Q1.06 9.84 1.06 9.52L1.06 9.52Q1.06 9.18 1.12 8.96L1.12 8.96L0.56 8.96Q0.50 8.72 0.50 8.40L0.50 8.40Q0.50 8.06 0.56 7.84L0.56 7.84Q0.50 7.60 0.50 7.28L0.50 7.28Q0.50 6.94 0.56 6.72L0.56 6.72Q0.50 6.48 0.50 6.16L0.50 6.16Q0.50 5.82 0.56 5.60L0.56 5.60L1.12 5.60Q1.06 5.36 1.06 5.04L1.06 5.04Q1.06 4.70 1.12 4.48L1.12 4.48L1.68 4.48Q1.62 4.24 1.62 3.92L1.62 3.92Q1.62 3.58 1.68 3.36L1.68 3.36L4.48 3.36Q4.54 3.58 4.54 3.92L4.54 3.92Q4.54 4.24 4.48 4.48L4.48 4.48L5.04 4.48Q5.10 4.70 5.10 5.04L5.10 5.04Q5.10 5.36 5.04 5.60L5.04 5.60L3.92 5.60Q3.86 5.36 3.86 5.04L3.86 5.04Q3.86 4.70 3.92 4.48L3.92 4.48L2.24 4.48Q2.30 4.70 2.30 5.04L2.30 5.04Q2.30 5.36 2.24 5.60L2.24 5.60L1.68 5.60Q1.74 5.82 1.74 6.16L1.74 6.16Q1.74 6.48 1.68 6.72L1.68 6.72Q1.74 6.94 1.74 7.28L1.74 7.28Q1.74 7.60 1.68 7.84L1.68 7.84Q1.74 8.06 1.74 8.40L1.74 8.40Q1.74 8.72 1.68 8.96L1.68 8.96L2.24 8.96Q2.30 9.18 2.30 9.52L2.30 9.52Q2.30 9.84 2.24 10.08L2.24 10.08L3.92 10.08Q3.86 9.84 3.86 9.52L3.86 9.52Q3.86 9.18 3.92 8.96L3.92 8.96Q3.86 8.72 3.86 8.40L3.86 8.40Q3.86 8.06 3.92 7.84L3.92 7.84L3.08 7.84Q3.02 7.60 3.02 7.28L3.02 7.28Q3.02 6.94 3.08 6.72L3.08 6.72L5.04 6.72ZM10.64 10.08Q10.70 10.30 10.70 10.64L10.70 10.64Q10.70 10.96 10.64 11.20L10.64 11.20L9.52 11.20Q9.46 10.96 9.46 10.64L9.46 10.64Q9.46 10.30 9.52 10.08L9.52 10.08L8.96 10.08Q8.90 9.84 8.90 9.52L8.90 9.52Q8.90 9.18 8.96 8.96L8.96 8.96L7.28 8.96Q7.34 9.18 7.34 9.52L7.34 9.52Q7.34 9.84 7.28 10.08L7.28 10.08L8.96 10.08Q9.02 10.30 9.02 10.64L9.02 10.64Q9.02 10.96 8.96 11.20L8.96 11.20L6.72 11.20Q6.66 10.96 6.66 10.64L6.66 10.64Q6.66 10.30 6.72 10.08L6.72 10.08L6.16 10.08Q6.10 9.84 6.10 9.52L6.10 9.52Q6.10 9.18 6.16 8.96L6.16 8.96L6.72 8.96Q6.66 8.72 6.66 8.40L6.66 8.40Q6.66 8.06 6.72 7.84L6.72 7.84L8.96 7.84Q8.90 7.60 8.90 7.28L8.90 7.28Q8.90 6.94 8.96 6.72L8.96 6.72L7.00 6.72Q6.94 6.48 6.94 6.16L6.94 6.16Q6.94 5.82 7.00 5.60L7.00 5.60L9.52 5.60Q9.58 5.82 9.58 6.16L9.58 6.16Q9.58 6.48 9.52 6.72L9.52 6.72L10.08 6.72Q10.14 6.94 10.14 7.28L10.14 7.28Q10.14 7.60 10.08 7.84L10.08 7.84Q10.14 8.06 10.14 8.40L10.14 8.40Q10.14 8.72 10.08 8.96L10.08 8.96Q10.14 9.18 10.14 9.52L10.14 9.52Q10.14 9.84 10.08 10.08L10.08 10.08L10.64 10.08ZM12.52 6.16Q12.52 6.48 12.46 6.72L12.46 6.72L12.88 6.72Q12.94 6.94 12.94 7.28L12.94 7.28Q12.94 7.60 12.88 7.84L12.88 7.84Q12.94 8.06 12.94 8.40L12.94 8.40Q12.94 8.72 12.88 8.96L12.88 8.96Q12.94 9.18 12.94 9.52L12.94 9.52Q12.94 9.84 12.88 10.08L12.88 10.08Q12.94 10.30 12.94 10.64L12.94 10.64Q12.94 10.96 12.88 11.20L12.88 11.20L11.76 11.20Q11.70 10.96 11.70 10.64L11.70 10.64Q11.70 10.30 11.76 10.08L11.76 10.08Q11.70 9.84 11.70 9.52L11.70 9.52Q11.70 9.18 11.76 8.96L11.76 8.96Q11.70 8.72 11.70 8.40L11.70 8.40Q11.70 8.06 11.76 7.84L11.76 7.84Q11.70 7.60 11.70 7.28L11.70 7.28Q11.70 6.94 11.76 6.72L11.76 6.72Q11.70 6.48 11.70 6.16L11.70 6.16Q11.70 5.82 11.76 5.60L11.76 5.60L12.46 5.60Q12.52 5.82 12.52 6.16L12.52 6.16ZM14.06 6.16Q14.06 6.48 14.00 6.72L14.00 6.72L14.42 6.72Q14.48 6.94 14.48 7.28L14.48 7.28Q14.48 7.60 14.42 7.84L14.42 7.84Q14.48 8.06 14.48 8.40L14.48 8.40Q14.48 8.72 14.42 8.96L14.42 8.96Q14.48 9.18 14.48 9.52L14.48 9.52Q14.48 9.84 14.42 10.08L14.42 10.08Q14.48 10.30 14.48 10.64L14.48 10.64Q14.48 10.96 14.42 11.20L14.42 11.20L13.58 11.20Q13.52 10.96 13.52 10.64L13.52 10.64Q13.52 10.30 13.58 10.08L13.58 10.08Q13.52 9.84 13.52 9.52L13.52 9.52Q13.52 9.18 13.58 8.96L13.58 8.96Q13.52 8.72 13.52 8.40L13.52 8.40Q13.52 8.06 13.58 7.84L13.58 7.84Q13.52 7.60 13.52 7.28L13.52 7.28Q13.52 6.94 13.58 6.72L13.58 6.72L12.88 6.72Q12.82 6.48 12.82 6.16L12.82 6.16Q12.82 5.82 12.88 5.60L12.88 5.60L14.00 5.60Q14.06 5.82 14.06 6.16L14.06 6.16ZM16.24 7.84Q16.30 8.06 16.30 8.40L16.30 8.40Q16.30 8.72 16.24 8.96L16.24 8.96Q16.30 9.18 16.30 9.52L16.30 9.52Q16.30 9.84 16.24 10.08L16.24 10.08Q16.30 10.30 16.30 10.64L16.30 10.64Q16.30 10.96 16.24 11.20L16.24 11.20L15.12 11.20Q15.06 10.96 15.06 10.64L15.06 10.64Q15.06 10.30 15.12 10.08L15.12 10.08Q15.06 9.84 15.06 9.52L15.06 9.52Q15.06 9.18 15.12 8.96L15.12 8.96Q15.06 8.72 15.06 8.40L15.06 8.40Q15.06 8.06 15.12 7.84L15.12 7.84Q15.06 7.60 15.06 7.28L15.06 7.28Q15.06 6.94 15.12 6.72L15.12 6.72L14.42 6.72Q14.36 6.48 14.36 6.16L14.36 6.16Q14.36 5.82 14.42 5.60L14.42 5.60L15.68 5.60Q15.74 5.82 15.74 6.16L15.74 6.16Q15.74 6.48 15.68 6.72L15.68 6.72L16.24 6.72Q16.30 6.94 16.30 7.28L16.30 7.28Q16.30 7.60 16.24 7.84L16.24 7.84ZM21.90 7.28Q21.90 7.60 21.84 7.84L21.84 7.84Q21.90 8.06 21.90 8.40L21.90 8.40Q21.90 8.72 21.84 8.96L21.84 8.96L18.90 8.96Q18.96 9.18 18.96 9.52L18.96 9.52Q18.96 9.84 18.90 10.08L18.90 10.08L21.28 10.08Q21.34 10.30 21.34 10.64L21.34 10.64Q21.34 10.96 21.28 11.20L21.28 11.20L18.48 11.20Q18.42 10.96 18.42 10.64L18.42 10.64Q18.42 10.30 18.48 10.08L18.48 10.08L17.78 10.08Q17.72 9.84 17.72 9.52L17.72 9.52Q17.72 9.18 17.78 8.96L17.78 8.96L17.36 8.96Q17.30 8.72 17.30 8.40L17.30 8.40Q17.30 8.06 17.36 7.84L17.36 7.84L17.78 7.84Q17.72 7.60 17.72 7.28L17.72 7.28Q17.72 6.94 17.78 6.72L17.78 6.72L18.48 6.72Q18.42 6.48 18.42 6.16L18.42 6.16Q18.42 5.82 18.48 5.60L18.48 5.60L21.28 5.60Q21.34 5.82 21.34 6.16L21.34 6.16Q21.34 6.48 21.28 6.72L21.28 6.72L21.84 6.72Q21.90 6.94 21.90 7.28L21.90 7.28ZM20.72 7.84Q20.66 7.60 20.66 7.28L20.66 7.28Q20.66 6.94 20.72 6.72L20.72 6.72L18.90 6.72Q18.96 6.94 18.96 7.28L18.96 7.28Q18.96 7.60 18.90 7.84L18.90 7.84L20.72 7.84ZM27.44 4.48Q27.50 4.70 27.50 5.04L27.50 5.04Q27.50 5.36 27.44 5.60L27.44 5.60Q27.50 5.82 27.50 6.16L27.50 6.16Q27.50 6.48 27.44 6.72L27.44 6.72Q27.50 6.94 27.50 7.28L27.50 7.28Q27.50 7.60 27.44 7.84L27.44 7.84Q27.50 8.06 27.50 8.40L27.50 8.40Q27.50 8.72 27.44 8.96L27.44 8.96Q27.50 9.18 27.50 9.52L27.50 9.52Q27.50 9.84 27.44 10.08L27.44 10.08Q27.50 10.30 27.50 10.64L27.50 10.64Q27.50 10.96 27.44 11.20L27.44 11.20L26.32 11.20Q26.26 10.96 26.26 10.64L26.26 10.64Q26.26 10.30 26.32 10.08L26.32 10.08Q26.26 9.84 26.26 9.52L26.26 9.52Q26.26 9.18 26.32 8.96L26.32 8.96Q26.26 8.72 26.26 8.40L26.26 8.40Q26.26 8.06 26.32 7.84L26.32 7.84L24.08 7.84Q24.14 8.06 24.14 8.40L24.14 8.40Q24.14 8.72 24.08 8.96L24.08 8.96Q24.14 9.18 24.14 9.52L24.14 9.52Q24.14 9.84 24.08 10.08L24.08 10.08Q24.14 10.30 24.14 10.64L24.14 10.64Q24.14 10.96 24.08 11.20L24.08 11.20L22.96 11.20Q22.90 10.96 22.90 10.64L22.90 10.64Q22.90 10.30 22.96 10.08L22.96 10.08Q22.90 9.84 22.90 9.52L22.90 9.52Q22.90 9.18 22.96 8.96L22.96 8.96Q22.90 8.72 22.90 8.40L22.90 8.40Q22.90 8.06 22.96 7.84L22.96 7.84Q22.90 7.60 22.90 7.28L22.90 7.28Q22.90 6.94 22.96 6.72L22.96 6.72Q22.90 6.48 22.90 6.16L22.90 6.16Q22.90 5.82 22.96 5.60L22.96 5.60Q22.90 5.36 22.90 5.04L22.90 5.04Q22.90 4.70 22.96 4.48L22.96 4.48Q22.90 4.24 22.90 3.92L22.90 3.92Q22.90 3.58 22.96 3.36L22.96 3.36L24.08 3.36Q24.14 3.58 24.14 3.92L24.14 3.92Q24.14 4.24 24.08 4.48L24.08 4.48Q24.14 4.70 24.14 5.04L24.14 5.04Q24.14 5.36 24.08 5.60L24.08 5.60Q24.14 5.82 24.14 6.16L24.14 6.16Q24.14 6.48 24.08 6.72L24.08 6.72L26.32 6.72Q26.26 6.48 26.26 6.16L26.26 6.16Q26.26 5.82 26.32 5.60L26.32 5.60Q26.26 5.36 26.26 5.04L26.26 5.04Q26.26 4.70 26.32 4.48L26.32 4.48Q26.26 4.24 26.26 3.92L26.26 3.92Q26.26 3.58 26.32 3.36L26.32 3.36L27.44 3.36Q27.50 3.58 27.50 3.92L27.50 3.92Q27.50 4.24 27.44 4.48L27.44 4.48ZM30.16 9.52Q30.16 9.84 30.10 10.08L30.10 10.08L31.50 10.08Q31.56 10.30 31.56 10.64L31.56 10.64Q31.56 10.96 31.50 11.20L31.50 11.20L29.26 11.20Q29.20 10.96 29.20 10.64L29.20 10.64Q29.20 10.30 29.26 10.08L29.26 10.08L28.56 10.08Q28.50 9.84 28.50 9.52L28.50 9.52Q28.50 9.18 28.56 8.96L28.56 8.96Q28.50 8.72 28.50 8.40L28.50 8.40Q28.50 8.06 28.56 7.84L28.56 7.84Q28.50 7.60 28.50 7.28L28.50 7.28Q28.50 6.94 28.56 6.72L28.56 6.72Q28.50 6.48 28.50 6.16L28.50 6.16Q28.50 5.82 28.56 5.60L28.56 5.60L29.68 5.60Q29.74 5.82 29.74 6.16L29.74 6.16Q29.74 6.48 29.68 6.72L29.68 6.72Q29.74 6.94 29.74 7.28L29.74 7.28Q29.74 7.60 29.68 7.84L29.68 7.84Q29.74 8.06 29.74 8.40L29.74 8.40Q29.74 8.72 29.68 8.96L29.68 8.96L30.10 8.96Q30.16 9.18 30.16 9.52L30.16 9.52ZM33.04 6.72Q33.10 6.94 33.10 7.28L33.10 7.28Q33.10 7.60 33.04 7.84L33.04 7.84Q33.10 8.06 33.10 8.40L33.10 8.40Q33.10 8.72 33.04 8.96L33.04 8.96Q33.10 9.18 33.10 9.52L33.10 9.52Q33.10 9.84 33.04 10.08L33.04 10.08Q33.10 10.30 33.10 10.64L33.10 10.64Q33.10 10.96 33.04 11.20L33.04 11.20L31.92 11.20Q31.86 10.96 31.86 10.64L31.86 10.64Q31.86 10.30 31.92 10.08L31.92 10.08L31.50 10.08Q31.44 9.84 31.44 9.52L31.44 9.52Q31.44 9.18 31.50 8.96L31.50 8.96L31.92 8.96Q31.86 8.72 31.86 8.40L31.86 8.40Q31.86 8.06 31.92 7.84L31.92 7.84Q31.86 7.60 31.86 7.28L31.86 7.28Q31.86 6.94 31.92 6.72L31.92 6.72Q31.86 6.48 31.86 6.16L31.86 6.16Q31.86 5.82 31.92 5.60L31.92 5.60L33.04 5.60Q33.10 5.82 33.10 6.16L33.10 6.16Q33.10 6.48 33.04 6.72L33.04 6.72ZM35.28 8.96Q35.34 9.18 35.34 9.52L35.34 9.52Q35.34 9.84 35.28 10.08L35.28 10.08L34.72 10.08Q34.78 10.30 34.78 10.64L34.78 10.64Q34.78 10.96 34.72 11.20L34.72 11.20L34.16 11.20Q34.10 10.96 34.10 10.64L34.10 10.64Q34.10 10.30 34.16 10.08L34.16 10.08Q34.10 9.84 34.10 9.52L34.10 9.52Q34.10 9.18 34.16 8.96L34.16 8.96Q34.10 8.72 34.10 8.40L34.10 8.40Q34.10 8.06 34.16 7.84L34.16 7.84Q34.10 7.60 34.10 7.28L34.10 7.28Q34.10 6.94 34.16 6.72L34.16 6.72Q34.10 6.48 34.10 6.16L34.10 6.16Q34.10 5.82 34.16 5.60L34.16 5.60Q34.10 5.36 34.10 5.04L34.10 5.04Q34.10 4.70 34.16 4.48L34.16 4.48Q34.10 4.24 34.10 3.92L34.10 3.92Q34.10 3.58 34.16 3.36L34.16 3.36L35.28 3.36Q35.34 3.58 35.34 3.92L35.34 3.92Q35.34 4.24 35.28 4.48L35.28 4.48Q35.34 4.70 35.34 5.04L35.34 5.04Q35.34 5.36 35.28 5.60L35.28 5.60Q35.34 5.82 35.34 6.16L35.34 6.16Q35.34 6.48 35.28 6.72L35.28 6.72L35.84 6.72Q35.90 6.94 35.90 7.28L35.90 7.28Q35.90 7.60 35.84 7.84L35.84 7.84L35.28 7.84Q35.34 8.06 35.34 8.40L35.34 8.40Q35.34 8.72 35.28 8.96L35.28 8.96ZM38.70 8.40Q38.70 8.72 38.64 8.96L38.64 8.96L38.08 8.96Q38.14 9.18 38.14 9.52L38.14 9.52Q38.14 9.84 38.08 10.08L38.08 10.08L36.96 10.08Q36.90 9.84 36.90 9.52L36.90 9.52Q36.90 9.18 36.96 8.96L36.96 8.96L37.52 8.96Q37.46 8.72 37.46 8.40L37.46 8.40Q37.46 8.06 37.52 7.84L37.52 7.84L36.96 7.84Q36.90 7.60 36.90 7.28L36.90 7.28Q36.90 6.94 36.96 6.72L36.96 6.72L35.84 6.72Q35.78 6.48 35.78 6.16L35.78 6.16Q35.78 5.82 35.84 5.60L35.84 5.60L37.52 5.60Q37.58 5.82 37.58 6.16L37.58 6.16Q37.58 6.48 37.52 6.72L37.52 6.72L38.08 6.72Q38.14 6.94 38.14 7.28L38.14 7.28Q38.14 7.60 38.08 7.84L38.08 7.84L38.64 7.84Q38.70 8.06 38.70 8.40L38.70 8.40ZM35.22 10.64Q35.22 10.30 35.28 10.08L35.28 10.08L36.96 10.08Q37.02 10.30 37.02 10.64L37.02 10.64Q37.02 10.96 36.96 11.20L36.96 11.20L35.28 11.20Q35.22 10.96 35.22 10.64L35.22 10.64Z"></path></g><defs data-v-423bf9ae=""><linearGradient data-v-423bf9ae="" gradientTransform="rotate(25)" id="42f001e2-d27a-416b-9962-86f76c9755a6" x1="0%" y1="0%" x2="100%" y2="0%"><stop data-v-423bf9ae="" offset="0%" style="stop-color: rgb(3, 200, 232); stop-opacity: 1;"></stop><stop data-v-423bf9ae="" offset="100%" style="stop-color: rgb(218, 78, 204); stop-opacity: 1;"></stop></linearGradient></defs><g data-v-423bf9ae="" id="faf43e06-0423-4416-bd18-bada37b118ab" transform="matrix(1.8,0,0,1.8,57,-45)" stroke="none" fill="url(#42f001e2-d27a-416b-9962-86f76c9755a6)"><path d="M26 25C16.059 25 8 35.059 8 45s2.059 30 12 30c5.323 0 16.11-12.325 19.406-16h21.188C63.89 62.675 74.677 75 80 75c9.941 0 12-20.059 12-30 0-9.941-8.059-20-18-20-5.323 0-10.11.325-13.406 4H39.406C36.11 25.325 31.323 25 26 25zm48 9a3 3 0 110 6 3 3 0 010-6zm-48.219 1.031A2 1.991 0 0128 37.062v3.97h3.969A1.991 2 0 0134 42.811a1.991 2 0 01-2.031 2.22H28V49a2 1.992 0 01-4 0V45.03h-3.969a1.992 2 0 110-4H24v-3.969a2 1.991 0 011.781-2.03zM68 40a3 3 0 110 6 3 3 0 010-6zm12 0a3 3 0 110 6 3 3 0 010-6zm-6 6a3 3 0 110 6 3 3 0 010-6z" overflow="visible" color="#000"></path></g><!----><g data-v-423bf9ae="" id="d4ff9e5d-49da-4bdc-881f-90f27b411ddc" fill="#08ADDD" transform="matrix(0.4090065577953025,0,0,0.4090065577953025,37.97270453528411,206.47541715905868)"><path d="M1.02 6.97L1.02 5.88L4.24 5.88Q6.06 5.88 6.90 6.75Q7.74 7.62 7.74 9.52L7.74 9.52L7.74 12.04Q7.74 13.94 6.90 14.81Q6.06 15.68 4.24 15.68L4.24 15.68L1.02 15.68L1.02 14.57L1.86 14.57L1.86 6.97L1.02 6.97ZM3.04 14.59L4.07 14.59Q4.72 14.59 5.19 14.46Q5.66 14.34 5.96 14.04Q6.27 13.73 6.42 13.23Q6.57 12.73 6.57 11.96L6.57 11.96L6.57 9.60Q6.57 8.83 6.42 8.33Q6.27 7.83 5.96 7.53Q5.66 7.22 5.19 7.10Q4.72 6.97 4.07 6.97L4.07 6.97L3.04 6.97L3.04 14.59ZM16.88 15.68L16.88 5.88L22.82 5.88L22.82 6.97L18.06 6.97L18.06 10.22L22.74 10.22L22.74 11.31L18.06 11.31L18.06 14.59L22.90 14.59L22.90 15.68L16.88 15.68ZM37.73 9.21L37.73 8.71Q37.73 8.23 37.54 7.87Q37.35 7.50 37.03 7.27Q36.71 7.03 36.29 6.90Q35.87 6.78 35.41 6.78L35.41 6.78Q35 6.78 34.64 6.88Q34.27 6.99 33.98 7.18Q33.70 7.38 33.53 7.66Q33.36 7.95 33.36 8.33L33.36 8.33L33.36 8.41Q33.36 8.82 33.53 9.11Q33.70 9.39 34.03 9.60Q34.36 9.80 34.85 9.93Q35.34 10.07 35.99 10.16L35.99 10.16Q37.53 10.40 38.26 11.07Q38.99 11.73 38.99 12.85L38.99 12.85L38.99 13.02Q38.99 13.65 38.77 14.17Q38.56 14.70 38.13 15.08Q37.70 15.46 37.07 15.67Q36.44 15.88 35.62 15.88L35.62 15.88Q34.68 15.88 33.96 15.60Q33.24 15.33 32.75 14.85Q32.27 14.36 32.02 13.71Q31.77 13.06 31.77 12.29L31.77 12.29L31.77 11.87L32.94 11.87L32.94 12.21Q32.94 13.50 33.65 14.14Q34.36 14.78 35.62 14.78L35.62 14.78Q36.71 14.78 37.26 14.30Q37.81 13.82 37.81 13.02L37.81 13.02L37.81 12.94Q37.81 12.17 37.25 11.76Q36.68 11.35 35.41 11.17L35.41 11.17Q34.66 11.07 34.07 10.87Q33.47 10.67 33.05 10.34Q32.63 10.01 32.41 9.55Q32.19 9.09 32.19 8.46L32.19 8.46L32.19 8.29Q32.19 7.71 32.42 7.24Q32.66 6.76 33.09 6.41Q33.52 6.06 34.11 5.87Q34.71 5.68 35.42 5.68L35.42 5.68Q36.25 5.68 36.90 5.92Q37.55 6.16 38.00 6.56Q38.44 6.96 38.67 7.50Q38.91 8.04 38.91 8.62L38.91 8.62L38.91 9.21L37.73 9.21ZM51.04 14.78L51.04 14.78Q51.65 14.78 52.07 14.58Q52.50 14.38 52.77 14.04Q53.05 13.69 53.18 13.25Q53.31 12.81 53.31 12.32L53.31 12.32L53.31 12.15L54.49 12.15L54.49 12.32Q54.49 13.06 54.26 13.71Q54.04 14.36 53.61 14.85Q53.17 15.33 52.53 15.60Q51.88 15.88 51.04 15.88L51.04 15.88Q49.42 15.88 48.51 14.85Q47.60 13.83 47.60 11.87L47.60 11.87L47.60 9.69Q47.60 7.78 48.51 6.73Q49.42 5.68 51.04 5.68L51.04 5.68Q51.88 5.68 52.53 5.96Q53.17 6.23 53.61 6.71Q54.04 7.20 54.26 7.85Q54.49 8.50 54.49 9.24L54.49 9.24L54.49 9.41L53.31 9.41L53.31 9.24Q53.30 8.76 53.16 8.32Q53.03 7.87 52.76 7.53Q52.49 7.18 52.07 6.98Q51.65 6.78 51.04 6.78L51.04 6.78Q49.91 6.78 49.34 7.60Q48.78 8.43 48.78 9.77L48.78 9.77L48.78 11.79Q48.78 13.23 49.34 14.01Q49.91 14.78 51.04 14.78ZM69.37 15.68L68.66 13.24L64.46 13.24L63.74 15.68L62.48 15.68L65.45 5.88L67.66 5.88L70.63 15.68L69.37 15.68ZM66.64 6.38L66.47 6.38L64.78 12.15L68.33 12.15L66.64 6.38ZM85.19 12.15L85.19 15.68L84.01 15.68L84.01 12.40Q84.01 12.04 83.85 11.84Q83.68 11.65 83.26 11.65L83.26 11.65L80.21 11.65L80.21 15.68L79.03 15.68L79.03 5.88L82.53 5.88Q83.29 5.88 83.85 6.10Q84.41 6.31 84.78 6.68Q85.15 7.04 85.34 7.53Q85.53 8.01 85.53 8.54L85.53 8.54L85.53 8.96Q85.53 9.51 85.23 10.05Q84.92 10.60 84.29 10.89L84.29 10.89L84.29 11.06Q84.71 11.13 84.95 11.40Q85.19 11.66 85.19 12.15L85.19 12.15ZM80.21 6.97L80.21 10.56L82.39 10.56Q83.38 10.56 83.87 10.13Q84.35 9.70 84.35 8.88L84.35 8.88L84.35 8.62Q84.35 7.88 83.87 7.43Q83.38 6.97 82.39 6.97L82.39 6.97L80.21 6.97ZM96.75 12.07L96.75 10.98L101.12 10.98L101.12 15.68L100.03 15.68L100.03 14.50L99.86 14.50Q99.62 15.12 99.02 15.50Q98.42 15.88 97.62 15.88L97.62 15.88Q96.04 15.88 95.14 14.85Q94.23 13.83 94.23 11.87L94.23 11.87L94.23 9.69Q94.23 7.78 95.14 6.73Q96.05 5.68 97.68 5.68L97.68 5.68Q98.52 5.68 99.16 5.96Q99.81 6.23 100.24 6.71Q100.67 7.20 100.90 7.85Q101.12 8.50 101.12 9.24L101.12 9.24L101.12 9.41L99.95 9.41L99.95 9.24Q99.95 8.76 99.81 8.32Q99.68 7.87 99.41 7.53Q99.13 7.18 98.71 6.98Q98.28 6.78 97.68 6.78L97.68 6.78Q96.54 6.78 95.98 7.60Q95.41 8.43 95.41 9.77L95.41 9.77L95.41 11.79Q95.41 13.23 95.98 14.01Q96.54 14.78 97.71 14.78L97.71 14.78Q98.76 14.78 99.35 14.11Q99.95 13.44 99.95 12.24L99.95 12.24L99.95 12.07L96.75 12.07ZM116.07 15.68L115.36 13.24L111.16 13.24L110.45 15.68L109.19 15.68L112.15 5.88L114.37 5.88L117.33 15.68L116.07 15.68ZM113.34 6.38L113.18 6.38L111.48 12.15L115.04 12.15L113.34 6.38ZM141.33 15.68L141.33 5.88L142.51 5.88L142.51 14.59L147.63 14.59L147.63 15.68L141.33 15.68ZM156.52 11.87L156.52 9.69Q156.52 7.78 157.43 6.73Q158.34 5.68 159.96 5.68L159.96 5.68Q161.59 5.68 162.50 6.73Q163.41 7.78 163.41 9.69L163.41 9.69L163.41 11.87Q163.41 13.83 162.50 14.85Q161.59 15.88 159.96 15.88L159.96 15.88Q158.34 15.88 157.43 14.85Q156.52 13.83 156.52 11.87L156.52 11.87ZM159.96 14.78L159.96 14.78Q161.10 14.78 161.67 14.01Q162.23 13.23 162.23 11.79L162.23 11.79L162.23 9.77Q162.23 8.43 161.67 7.60Q161.10 6.78 159.96 6.78L159.96 6.78Q158.83 6.78 158.26 7.60Q157.70 8.43 157.70 9.77L157.70 9.77L157.70 11.79Q157.70 13.23 158.26 14.01Q158.83 14.78 159.96 14.78ZM177.84 9.21L177.84 8.71Q177.84 8.23 177.65 7.87Q177.46 7.50 177.14 7.27Q176.82 7.03 176.40 6.90Q175.98 6.78 175.52 6.78L175.52 6.78Q175.11 6.78 174.75 6.88Q174.38 6.99 174.10 7.18Q173.81 7.38 173.64 7.66Q173.47 7.95 173.47 8.33L173.47 8.33L173.47 8.41Q173.47 8.82 173.64 9.11Q173.81 9.39 174.14 9.60Q174.47 9.80 174.96 9.93Q175.45 10.07 176.11 10.16L176.11 10.16Q177.65 10.40 178.37 11.07Q179.10 11.73 179.10 12.85L179.10 12.85L179.10 13.02Q179.10 13.65 178.89 14.17Q178.67 14.70 178.24 15.08Q177.81 15.46 177.18 15.67Q176.55 15.88 175.73 15.88L175.73 15.88Q174.79 15.88 174.07 15.60Q173.35 15.33 172.87 14.85Q172.38 14.36 172.13 13.71Q171.88 13.06 171.88 12.29L171.88 12.29L171.88 11.87L173.05 11.87L173.05 12.21Q173.05 13.50 173.76 14.14Q174.47 14.78 175.73 14.78L175.73 14.78Q176.82 14.78 177.37 14.30Q177.93 13.82 177.93 13.02L177.93 13.02L177.93 12.94Q177.93 12.17 177.36 11.76Q176.79 11.35 175.52 11.17L175.52 11.17Q174.78 11.07 174.18 10.87Q173.59 10.67 173.17 10.34Q172.75 10.01 172.52 9.55Q172.30 9.09 172.30 8.46L172.30 8.46L172.30 8.29Q172.30 7.71 172.54 7.24Q172.77 6.76 173.20 6.41Q173.63 6.06 174.22 5.87Q174.82 5.68 175.53 5.68L175.53 5.68Q176.36 5.68 177.01 5.92Q177.66 6.16 178.11 6.56Q178.56 6.96 178.79 7.50Q179.02 8.04 179.02 8.62L179.02 8.62L179.02 9.21L177.84 9.21ZM203.03 15.68L203.03 5.88L205.27 5.88L206.58 15.18L206.75 15.18L208.07 5.88L210.31 5.88L210.31 15.68L209.22 15.68L209.22 6.38L209.05 6.38L207.73 15.68L205.60 15.68L204.29 6.38L204.12 6.38L204.12 15.68L203.03 15.68ZM219.27 15.68L219.27 5.88L225.20 5.88L225.20 6.97L220.44 6.97L220.44 10.22L225.12 10.22L225.12 11.31L220.44 11.31L220.44 14.59L225.29 14.59L225.29 15.68L219.27 15.68ZM240.59 6.97L240.59 12.74Q240.59 14.27 239.84 15.07Q239.09 15.88 237.65 15.88L237.65 15.88Q236.21 15.88 235.38 15.07Q234.54 14.27 234.54 12.74L234.54 12.74L234.54 11.98L235.72 11.98L235.72 12.74Q235.72 13.66 236.19 14.22Q236.67 14.78 237.65 14.78L237.65 14.78Q238.63 14.78 239.02 14.22Q239.41 13.66 239.41 12.74L239.41 12.74L239.41 6.97L238.41 6.97L238.41 5.88L241.43 5.88L241.43 6.97L240.59 6.97ZM249.93 11.87L249.93 9.69Q249.93 7.78 250.84 6.73Q251.75 5.68 253.37 5.68L253.37 5.68Q255.00 5.68 255.91 6.73Q256.82 7.78 256.82 9.69L256.82 9.69L256.82 11.87Q256.82 13.83 255.91 14.85Q255.00 15.88 253.37 15.88L253.37 15.88Q251.75 15.88 250.84 14.85Q249.93 13.83 249.93 11.87L249.93 11.87ZM253.37 14.78L253.37 14.78Q254.51 14.78 255.07 14.01Q255.64 13.23 255.64 11.79L255.64 11.79L255.64 9.77Q255.64 8.43 255.07 7.60Q254.51 6.78 253.37 6.78L253.37 6.78Q252.24 6.78 251.67 7.60Q251.10 8.43 251.10 9.77L251.10 9.77L251.10 11.79Q251.10 13.23 251.67 14.01Q252.24 14.78 253.37 14.78ZM272.01 12.15L272.01 15.68L270.83 15.68L270.83 12.40Q270.83 12.04 270.66 11.84Q270.49 11.65 270.07 11.65L270.07 11.65L267.02 11.65L267.02 15.68L265.85 15.68L265.85 5.88L269.35 5.88Q270.10 5.88 270.66 6.10Q271.22 6.31 271.59 6.68Q271.96 7.04 272.15 7.53Q272.34 8.01 272.34 8.54L272.34 8.54L272.34 8.96Q272.34 9.51 272.04 10.05Q271.74 10.60 271.11 10.89L271.11 10.89L271.11 11.06Q271.53 11.13 271.77 11.40Q272.01 11.66 272.01 12.15L272.01 12.15ZM267.02 6.97L267.02 10.56L269.21 10.56Q270.20 10.56 270.68 10.13Q271.17 9.70 271.17 8.88L271.17 8.88L271.17 8.62Q271.17 7.88 270.68 7.43Q270.20 6.97 269.21 6.97L269.21 6.97L267.02 6.97ZM281.54 15.68L281.54 5.88L287.48 5.88L287.48 6.97L282.72 6.97L282.72 10.22L287.39 10.22L287.39 11.31L282.72 11.31L282.72 14.59L287.56 14.59L287.56 15.68L281.54 15.68ZM302.39 9.21L302.39 8.71Q302.39 8.23 302.20 7.87Q302.01 7.50 301.69 7.27Q301.36 7.03 300.94 6.90Q300.52 6.78 300.06 6.78L300.06 6.78Q299.66 6.78 299.29 6.88Q298.93 6.99 298.64 7.18Q298.35 7.38 298.19 7.66Q298.02 7.95 298.02 8.33L298.02 8.33L298.02 8.41Q298.02 8.82 298.19 9.11Q298.35 9.39 298.68 9.60Q299.01 9.80 299.50 9.93Q299.99 10.07 300.65 10.16L300.65 10.16Q302.19 10.40 302.92 11.07Q303.65 11.73 303.65 12.85L303.65 12.85L303.65 13.02Q303.65 13.65 303.43 14.17Q303.21 14.70 302.79 15.08Q302.36 15.46 301.73 15.67Q301.10 15.88 300.27 15.88L300.27 15.88Q299.33 15.88 298.61 15.60Q297.89 15.33 297.41 14.85Q296.93 14.36 296.67 13.71Q296.42 13.06 296.42 12.29L296.42 12.29L296.42 11.87L297.60 11.87L297.60 12.21Q297.60 13.50 298.31 14.14Q299.01 14.78 300.27 14.78L300.27 14.78Q301.36 14.78 301.92 14.30Q302.47 13.82 302.47 13.02L302.47 13.02L302.47 12.94Q302.47 12.17 301.90 11.76Q301.34 11.35 300.06 11.17L300.06 11.17Q299.32 11.07 298.73 10.87Q298.13 10.67 297.71 10.34Q297.29 10.01 297.07 9.55Q296.84 9.09 296.84 8.46L296.84 8.46L296.84 8.29Q296.84 7.71 297.08 7.24Q297.32 6.76 297.75 6.41Q298.17 6.06 298.77 5.87Q299.36 5.68 300.08 5.68L300.08 5.68Q300.90 5.68 301.55 5.92Q302.20 6.16 302.65 6.56Q303.10 6.96 303.33 7.50Q303.56 8.04 303.56 8.62L303.56 8.62L303.56 9.21L302.39 9.21ZM334.00 6.97L334.00 12.74Q334.00 14.27 333.25 15.07Q332.50 15.88 331.06 15.88L331.06 15.88Q329.62 15.88 328.78 15.07Q327.95 14.27 327.95 12.74L327.95 12.74L327.95 11.98L329.13 11.98L329.13 12.74Q329.13 13.66 329.60 14.22Q330.08 14.78 331.06 14.78L331.06 14.78Q332.04 14.78 332.43 14.22Q332.82 13.66 332.82 12.74L332.82 12.74L332.82 6.97L331.81 6.97L331.81 5.88L334.84 5.88L334.84 6.97L334.00 6.97ZM343.42 5.88L344.60 5.88L344.60 12.38Q344.60 13.57 345.15 14.17Q345.70 14.78 346.78 14.78L346.78 14.78Q347.86 14.78 348.41 14.17Q348.96 13.57 348.96 12.38L348.96 12.38L348.96 5.88L350.14 5.88L350.14 12.38Q350.14 14.08 349.24 14.98Q348.35 15.88 346.78 15.88L346.78 15.88Q345.21 15.88 344.32 14.98Q343.42 14.08 343.42 12.38L343.42 12.38L343.42 5.88ZM359.38 15.68L359.38 5.88L365.32 5.88L365.32 6.97L360.56 6.97L360.56 10.22L365.23 10.22L365.23 11.31L360.56 11.31L360.56 14.59L365.40 14.59L365.40 15.68L359.38 15.68ZM376.98 12.07L376.98 10.98L381.35 10.98L381.35 15.68L380.25 15.68L380.25 14.50L380.09 14.50Q379.85 15.12 379.25 15.50Q378.64 15.88 377.85 15.88L377.85 15.88Q376.26 15.88 375.36 14.85Q374.46 13.83 374.46 11.87L374.46 11.87L374.46 9.69Q374.46 7.78 375.37 6.73Q376.28 5.68 377.90 5.68L377.90 5.68Q378.74 5.68 379.39 5.96Q380.03 6.23 380.46 6.71Q380.90 7.20 381.12 7.85Q381.35 8.50 381.35 9.24L381.35 9.24L381.35 9.41L380.17 9.41L380.17 9.24Q380.17 8.76 380.04 8.32Q379.90 7.87 379.63 7.53Q379.36 7.18 378.93 6.98Q378.50 6.78 377.90 6.78L377.90 6.78Q376.77 6.78 376.20 7.60Q375.63 8.43 375.63 9.77L375.63 9.77L375.63 11.79Q375.63 13.23 376.20 14.01Q376.77 14.78 377.93 14.78L377.93 14.78Q378.98 14.78 379.57 14.11Q380.17 13.44 380.17 12.24L380.17 12.24L380.17 12.07L376.98 12.07ZM390.04 11.87L390.04 9.69Q390.04 7.78 390.95 6.73Q391.86 5.68 393.48 5.68L393.48 5.68Q395.11 5.68 396.02 6.73Q396.93 7.78 396.93 9.69L396.93 9.69L396.93 11.87Q396.93 13.83 396.02 14.85Q395.11 15.88 393.48 15.88L393.48 15.88Q391.86 15.88 390.95 14.85Q390.04 13.83 390.04 11.87L390.04 11.87ZM393.48 14.78L393.48 14.78Q394.62 14.78 395.18 14.01Q395.75 13.23 395.75 11.79L395.75 11.79L395.75 9.77Q395.75 8.43 395.18 7.60Q394.62 6.78 393.48 6.78L393.48 6.78Q392.35 6.78 391.78 7.60Q391.22 8.43 391.22 9.77L391.22 9.77L391.22 11.79Q391.22 13.23 391.78 14.01Q392.35 14.78 393.48 14.78ZM411.36 9.21L411.36 8.71Q411.36 8.23 411.17 7.87Q410.98 7.50 410.66 7.27Q410.34 7.03 409.92 6.90Q409.50 6.78 409.04 6.78L409.04 6.78Q408.63 6.78 408.27 6.88Q407.90 6.99 407.62 7.18Q407.33 7.38 407.16 7.66Q406.99 7.95 406.99 8.33L406.99 8.33L406.99 8.41Q406.99 8.82 407.16 9.11Q407.33 9.39 407.66 9.60Q407.99 9.80 408.48 9.93Q408.97 10.07 409.63 10.16L409.63 10.16Q411.17 10.40 411.89 11.07Q412.62 11.73 412.62 12.85L412.62 12.85L412.62 13.02Q412.62 13.65 412.40 14.17Q412.19 14.70 411.76 15.08Q411.33 15.46 410.70 15.67Q410.07 15.88 409.25 15.88L409.25 15.88Q408.31 15.88 407.59 15.60Q406.87 15.33 406.38 14.85Q405.90 14.36 405.65 13.71Q405.40 13.06 405.40 12.29L405.40 12.29L405.40 11.87L406.57 11.87L406.57 12.21Q406.57 13.50 407.28 14.14Q407.99 14.78 409.25 14.78L409.25 14.78Q410.34 14.78 410.89 14.30Q411.45 13.82 411.45 13.02L411.45 13.02L411.45 12.94Q411.45 12.17 410.88 11.76Q410.31 11.35 409.04 11.17L409.04 11.17Q408.30 11.07 407.70 10.87Q407.11 10.67 406.69 10.34Q406.27 10.01 406.04 9.55Q405.82 9.09 405.82 8.46L405.82 8.46L405.82 8.29Q405.82 7.71 406.06 7.24Q406.29 6.76 406.72 6.41Q407.15 6.06 407.74 5.87Q408.34 5.68 409.05 5.68L409.05 5.68Q409.88 5.68 410.53 5.92Q411.18 6.16 411.63 6.56Q412.08 6.96 412.31 7.50Q412.54 8.04 412.54 8.62L412.54 8.62L412.54 9.21L411.36 9.21ZM440.59 11.65L438.27 11.65L438.27 15.68L437.09 15.68L437.09 5.88L440.59 5.88Q441.35 5.88 441.91 6.10Q442.47 6.31 442.84 6.68Q443.21 7.04 443.40 7.53Q443.59 8.01 443.59 8.54L443.59 8.54L443.59 8.96Q443.59 9.49 443.40 9.98Q443.21 10.47 442.83 10.84Q442.46 11.21 441.90 11.43Q441.34 11.65 440.59 11.65L440.59 11.65ZM438.27 6.97L438.27 10.56L440.45 10.56Q442.41 10.56 442.41 8.88L442.41 8.88L442.41 8.62Q442.41 7.88 441.93 7.43Q441.45 6.97 440.45 6.97L440.45 6.97L438.27 6.97ZM458.57 15.68L457.86 13.24L453.66 13.24L452.94 15.68L451.68 15.68L454.65 5.88L456.86 5.88L459.83 15.68L458.57 15.68ZM455.84 6.38L455.67 6.38L453.98 12.15L457.53 12.15L455.84 6.38ZM474.39 12.15L474.39 15.68L473.21 15.68L473.21 12.40Q473.21 12.04 473.05 11.84Q472.88 11.65 472.46 11.65L472.46 11.65L469.41 11.65L469.41 15.68L468.23 15.68L468.23 5.88L471.73 5.88Q472.49 5.88 473.05 6.10Q473.61 6.31 473.98 6.68Q474.35 7.04 474.54 7.53Q474.73 8.01 474.73 8.54L474.73 8.54L474.73 8.96Q474.73 9.51 474.42 10.05Q474.12 10.60 473.49 10.89L473.49 10.89L473.49 11.06Q473.91 11.13 474.15 11.40Q474.39 11.66 474.39 12.15L474.39 12.15ZM469.41 6.97L469.41 10.56L471.59 10.56Q472.58 10.56 473.07 10.13Q473.55 9.70 473.55 8.88L473.55 8.88L473.55 8.62Q473.55 7.88 473.07 7.43Q472.58 6.97 471.59 6.97L471.59 6.97L469.41 6.97ZM489.71 15.68L488.99 13.24L484.79 13.24L484.08 15.68L482.82 15.68L485.79 5.88L488.00 5.88L490.97 15.68L489.71 15.68ZM486.98 6.38L486.81 6.38L485.11 12.15L488.67 12.15L486.98 6.38ZM518.43 11.65L516.11 11.65L516.11 15.68L514.93 15.68L514.93 5.88L518.43 5.88Q519.19 5.88 519.75 6.10Q520.31 6.31 520.68 6.68Q521.05 7.04 521.24 7.53Q521.43 8.01 521.43 8.54L521.43 8.54L521.43 8.96Q521.43 9.49 521.24 9.98Q521.05 10.47 520.67 10.84Q520.30 11.21 519.74 11.43Q519.18 11.65 518.43 11.65L518.43 11.65ZM516.11 6.97L516.11 10.56L518.29 10.56Q520.25 10.56 520.25 8.88L520.25 8.88L520.25 8.62Q520.25 7.88 519.77 7.43Q519.29 6.97 518.29 6.97L518.29 6.97L516.11 6.97ZM533.65 14.78L533.65 14.78Q534.25 14.78 534.68 14.58Q535.11 14.38 535.38 14.04Q535.65 13.69 535.79 13.25Q535.92 12.81 535.92 12.32L535.92 12.32L535.92 12.15L537.10 12.15L537.10 12.32Q537.10 13.06 536.87 13.71Q536.65 14.36 536.21 14.85Q535.78 15.33 535.14 15.60Q534.49 15.88 533.65 15.88L533.65 15.88Q532.03 15.88 531.12 14.85Q530.21 13.83 530.21 11.87L530.21 11.87L530.21 9.69Q530.21 7.78 531.12 6.73Q532.03 5.68 533.65 5.68L533.65 5.68Q534.49 5.68 535.14 5.96Q535.78 6.23 536.21 6.71Q536.65 7.20 536.87 7.85Q537.10 8.50 537.10 9.24L537.10 9.24L537.10 9.41L535.92 9.41L535.92 9.24Q535.91 8.76 535.77 8.32Q535.64 7.87 535.37 7.53Q535.09 7.18 534.67 6.98Q534.25 6.78 533.65 6.78L533.65 6.78Q532.52 6.78 531.95 7.60Q531.38 8.43 531.38 9.77L531.38 9.77L531.38 11.79Q531.38 13.23 531.95 14.01Q532.52 14.78 533.65 14.78Z"></path></g></svg>